<?xml version="1.0" encoding="UTF-8"?>
<svg id="Layer_1" data-name="Layer 1" xmlns="http://www.w3.org/2000/svg" viewBox="0 0 1249.18 1071.88">
  <defs>
    <style>
      .cls-1 {
        fill: #f14a0e;
      }

      .cls-2 {
        fill: #f9faeb;
      }
    </style>
  </defs>
  <polygon class="cls-2" points="1248.24 136.83 640.08 233.51 29.14 99.97 640.08 0 1248.24 136.83"/>
  <polygon class="cls-2" points="1248.24 136.83 1238.86 963.04 620.19 1071.75 640.08 233.51 1248.24 136.83"/>
  <polygon class="cls-2" points="640.08 233.51 620.19 1071.75 0 930.6 29.14 99.97 640.08 233.51"/>
  <rect class="cls-1" x="636.27" y="178.82" width="615.73" height="12.68" transform="translate(-17.33 149.71) rotate(-8.98)"/>
  <rect class="cls-1" x="328.29" y="-145.99" width="12.66" height="625.35" transform="translate(100.31 457.99) rotate(-77.67)"/>
  <rect class="cls-1" x="210.89" y="646.26" width="838.5" height="12.67" transform="translate(-37.04 1267.28) rotate(-88.66)"/>
  <g>
    <path class="cls-1" d="M727.34,298.89c2.09-1.88,21.29-18.55,46.39-14.54,32.39,5.17,45.87,40.21,49.85,50.54,4.7,12.2,15.74,40.91,0,62.77-15.61,21.67-48.48,24.04-71.31,15.47-27.47-10.32-42.9-37.42-44.31-62.37-.31-5.55-1.86-32.83,19.39-51.87Z"/>
    <path class="cls-1" d="M902.25,590.64c2.61-23.4,19.99-48.48,46.49-54.43,24.89-5.59,44.73,8.63,47.63,10.77,22.16,16.43,24.3,42.16,24.95,49.89.65,7.79,2.91,34.94-17.01,53.86-2.04,1.94-16.75,15.51-37.42,15.31-33.65-.32-68.93-36.95-64.64-75.41Z"/>
    <path class="cls-1" d="M1117.14,230.04c31.18-12.58,63.11,16.71,64.64,18.14,2.29,2.16,30.62,29.79,22.11,65.2-1.49,6.21-7.73,27.7-28.35,37.99-22.02,10.99-44.3,1.14-53.3-2.83-7.52-3.32-29.93-13.23-38.56-37.99-8.44-24.2,2.27-45.42,5.1-51.03,3.57-7.07,11.43-22.66,28.35-29.48Z"/>
    <path class="cls-1" d="M1067.13,806.09c15.31-22.61,45.43-22.21,49.43-22.1,24.07.69,45.02,15.52,55.83,34.89,12.77,22.88,11.03,51.42-2.91,71.53-2.99,4.31-14.59,21.05-35.48,24.43-23.34,3.78-41.25-11.88-48.27-18.03-20.87-18.26-24.73-42.31-25.59-50.01-1.12-10-2.92-26.09,6.98-40.71Z"/>
    <path class="cls-1" d="M723.77,841.5c3.47-3.77,16.48-17.89,35.97-18.77,21.18-.95,36.34,14.36,44.83,22.94,6.24,6.3,18.79,19.34,22.42,40.66,1.26,7.4,3.76,29.44-10.43,50.04-2.94,4.27-14.99,21.76-37.01,26.06-25.62,5-49.05-10.91-60.99-26.59-21.96-28.82-16.05-71.27,5.21-94.35Z"/>
    <path class="cls-1" d="M491.08,604.23l-2.03,11.53c-10.9-1.65-31.42-2.91-50.43-.13-33.07,4.94-55.37,19.26-72.22,30.28-26.73,17.61-52.33,34.33-62.84,66.39-5.96,17.86-5.07,34.21-3.55,44.85h-15.08c1.01-9.12,1.78-22.3,0-37.88-5.57-45.86-29.65-76.53-38.51-87.3-26.99-33.32-58.79-48.53-74.5-54.73-24.45-9.76-46.12-12.29-60.56-12.8v-10.01c12.49,1.06,29.05,1.64,48.4,0,13.21-1.12,29.9-2.63,50.8-9.1,23.58-7.3,40.85-17.31,50.27-23.37,18.27-11.75,32.22-20.72,43.24-38.48,8.99-14.5,12.74-29.34,15.96-43.08,2.91-12.42,4.31-22.93,5.07-30.28l13.3,4.05c-2.54,9.38-5.2,23.69-3.42,40.67,3.17,30.79,19,50.81,40.16,77.54,19.77,24.96,37,46.75,68.67,60.56,18.88,8.11,35.86,10.52,47.26,11.28Z"/>
  </g>
</svg>