<?xml version="1.0" encoding="UTF-8"?>
<svg id="Layer_1" data-name="Layer 1" xmlns="http://www.w3.org/2000/svg" xmlns:xlink="http://www.w3.org/1999/xlink" viewBox="0 0 113.99 184">
  <defs>
    <style>
      .cls-1 {
        fill: none;
      }

      .cls-2 {
        clip-path: url(#clippath-1);
      }

      .cls-3 {
        fill: #10b981;
      }

      .cls-4 {
        clip-path: url(#clippath);
      }
    </style>
    <clipPath id="clippath">
      <rect class="cls-1" width="113.99" height="134.55"/>
    </clipPath>
    <clipPath id="clippath-1">
      <rect class="cls-1" x="17.99" y="157.22" width="37.33" height="26.78"/>
    </clipPath>
  </defs>
  <g class="cls-4">
    <path class="cls-3" d="M38.56,101.76c1.36-2.1,2.11-4.9,4.87-6.63,1.62-1.02,3.33.03,3.53-.37.08-.15-.48-1.35.2-2.24,3.2-4.21,18.5-8.53,20.43-12.2.34-.65.25-1.67.26-2.43l4.39.66c2.38-6.1,10.07-10.08,13.79-15.53,11.19-16.33,6.5-32.6-7.86-44.77-11.1-9.41-16.24-9.26-28.41-2.32-19.96,11.36-32.14,28.42-28.55,52.23-5.82-1.08-11.55,2.76-16.9.08-.61-.04.09,2.92-2.06,2.08-1.7-.65-.48-7.69-2.22-9.85.61-2.57,1.46-5.12,2.02-7.71,1.04-4.86,1.31-6.91,2.26-11.76,1.89-9.66,10.24-13.05,14.78-18.89,5.29-6.81,10.6-8.52,17.91-13.58,1.05-.74,1.23-2.67,2.31-3.34,23.37-14.3,62.15,3.34,71.94,27.7,6.66,16.57-1.09,32.2-13.75,43.21-2.28,1.97-3.03,5.29-7.97,5.08l1.1,2.14c-3.73-1.77-3.82.82-6.11,2.06-5.85,3.16-2.57,1.55-5.45,4.52-2.57,2.65-12.01,7.21-16.07,10.81-7.08,6.28-11.3,12.54-12.49,22.2-.44,3.58,1.07,7.82-1.04,10.92-2.38,1.71-7.98-2.53-10.56-2.58-1.6-.04-2.63,2.09-3.94,1.79-.89-.21-1.76-1.71-2.38-1.76-1.1-.07-2.57,3.82-4.85,3.01-2.14-1.62,1.32-18.62,2.46-21.93,1.33-3.91,2.88-7.08,6.21-9.51-.3.52-3.05,9.78-3.44,11.29-.6,2.34-.58,5.24-.91,7.68,4.44,2.73,4.22-6.23,8.68-2.69.3-3.34,1.53-6.66,2.71-9.77,1.18-3.09,7.41-9.79-.54-9.76-.84,1.85,2.65,3.63,2.15,4.31-.05.07-1.32-.22-1.77.33-1.21,1.52-.4,4.91-2.55,5.09.98-3.55,3.8-9.48-2.17-7.58h.02ZM5.48,51.87v1.09c.7-.36.7-.72,0-1.09ZM102.53,56.21v-2.16h-1.06v2.16h1.06ZM104.7,60.56h-2.16v1.06h2.16v-1.06ZM100.91,64.89v1.09c.7-.36.7-.72,0-1.09ZM99.82,67.06v1.09c.7-.36.7-.72,0-1.09ZM98.74,72.48v1.09c.7-.36.7-.72,0-1.09ZM74.34,86.58h-2.16v1.06h2.16v-1.06ZM69.46,88.74v1.09c.7-.36.7-.72,0-1.09ZM67.84,89.84h-2.17v2.16l2.16-2.16h.01ZM47.78,98.5v1.09c.7-.36.7-.72,0-1.09Z"/>
  </g>
  <path class="cls-3" d="M38.56,101.76c-.53.81-2.1.96-2.17,1.08.87-.63,1.14-.76,2.17-1.08Z"/>
  <g class="cls-2">
    <path class="cls-3" d="M19.05,174.42l1.98-.13-.93-3.14,4.34-1.65-3.24-.53c-.66-5.73.31-8.41,6.2-9.5,2.61-.49,15.47-1.51,17.91-1.15,12.31,1.83,10.94,14.52,2.46,20.43-4.11,2.87-15.14,2.61-20.34,5.2-6.45-.67-5.53-5.23-8.4-9.55h0ZM25.01,172.22v1.09c.7-.36.7-.72,0-1.09Z"/>
  </g>
  <path class="cls-3" d="M1.69,109.35h2.16v1.06H1.69v-1.06Z"/>
  <path class="cls-3" d="M39.1,107.18c.7.36.7.72,0,1.08v-1.08Z"/>
  <path class="cls-3" d="M39.1,115.85c.7.36.7.72,0,1.09v-1.09Z"/>
</svg>