<?xml version="1.0" encoding="UTF-8"?>
<svg id="Layer_1" data-name="Layer 1" xmlns="http://www.w3.org/2000/svg" xmlns:xlink="http://www.w3.org/1999/xlink" viewBox="0 0 1285.33 224">
  <defs>
    <style>
      .cls-1 {
        fill: none;
      }

      .cls-2 {
        fill: #3f3c4a;
      }

      .cls-3 {
        clip-path: url(#clippath);
      }
    </style>
    <clipPath id="clippath">
      <rect class="cls-1" width="1285.33" height="224"/>
    </clipPath>
  </defs>
  <g class="cls-3">
    <g>
      <path class="cls-2" d="M60.4,165.11c-.29-1.04-.59-2.01-.9-2.9-.29-.89-.55-2-.77-3.33-.22-1.34-.38-3.06-.46-5.15-.07-2.08-.1-4.69-.1-7.81v-24.54c0-7.29-1.27-12.42-3.79-15.4-2.53-2.97-6.62-4.46-12.27-4.46h-8.48v63.58H9.08V8.94h37.04c12.79,0,22.05,2.97,27.77,8.92,5.73,5.95,8.6,14.95,8.6,27v12.27c0,16.06-5.35,26.62-16.06,31.69,6.23,2.53,10.51,6.66,12.81,12.38,2.3,5.72,3.46,12.68,3.46,20.85v24.1c0,3.86.15,7.24.44,10.15.3,2.91,1.05,5.84,2.25,8.81h-25ZM33.63,31.25v47.96h9.6c4.61,0,8.21-1.19,10.81-3.56,2.61-2.39,3.92-6.7,3.92-12.94v-15.4c0-5.65-1.01-9.74-3.02-12.27-2.02-2.53-5.18-3.79-9.48-3.79h-11.83Z"/>
      <path class="cls-2" d="M178.21,165.11h-24.77l-4.23-28.33h-30.13l-4.25,28.33h-22.52L117.29,8.94h35.92l25,156.17ZM122.21,115.58h23.65l-11.83-78.98-11.81,78.98Z"/>
      <path class="cls-2" d="M244,81.9l-8.92,83.21h-33.69L184,8.94h23.85l13.17,123.15,11.83-123.15h23.65l12.27,124.04,12.71-124.04h21.44l-17.42,156.17h-32.56l-8.94-83.21Z"/>
      <path class="cls-2" d="M429.19,165.11h-24.77l-4.23-28.33h-30.13l-4.25,28.33h-22.52l24.98-156.17h35.92l25,156.17ZM373.19,115.58h23.65l-11.83-78.98-11.81,78.98Z"/>
      <path class="cls-2" d="M511.73,106.88v20.75c0,12.64-3.09,22.35-9.27,29.13-6.17,6.77-15.28,10.15-27.33,10.15s-21.16-3.38-27.33-10.15c-6.17-6.78-9.25-16.48-9.25-29.13V46.42c0-12.64,3.08-22.34,9.25-29.1,6.18-6.78,15.29-10.17,27.33-10.17s21.17,3.39,27.33,10.17c6.18,6.77,9.27,16.47,9.27,29.1v15.17h-23.21v-16.73c0-5.65-1.16-9.63-3.46-11.94-2.31-2.3-5.4-3.46-9.27-3.46s-6.95,1.16-9.25,3.46-3.46,6.29-3.46,11.94v84.33c0,5.66,1.15,9.6,3.46,11.83,2.3,2.22,5.39,3.33,9.25,3.33s6.96-1.11,9.27-3.33c2.3-2.23,3.46-6.18,3.46-11.83v-22.31h23.21Z"/>
      <path class="cls-2" d="M597.85,106.88v20.75c0,12.64-3.09,22.35-9.27,29.13-6.17,6.77-15.28,10.15-27.33,10.15s-21.16-3.38-27.33-10.15c-6.17-6.78-9.25-16.48-9.25-29.13V46.42c0-12.64,3.08-22.34,9.25-29.1,6.18-6.78,15.29-10.17,27.33-10.17s21.17,3.39,27.33,10.17c6.18,6.77,9.27,16.47,9.27,29.1v15.17h-23.21v-16.73c0-5.65-1.16-9.63-3.46-11.94-2.31-2.3-5.4-3.46-9.27-3.46s-6.95,1.16-9.25,3.46-3.46,6.29-3.46,11.94v84.33c0,5.66,1.15,9.6,3.46,11.83,2.3,2.22,5.39,3.33,9.25,3.33s6.96-1.11,9.27-3.33c2.3-2.23,3.46-6.18,3.46-11.83v-22.31h23.21Z"/>
      <path class="cls-2" d="M637.32,74.75h33.69v22.31h-33.69v45.73h42.4v22.31h-66.94V8.94h66.94v22.31h-42.4v43.5Z"/>
      <path class="cls-2" d="M694.87,8.94h24.54v133.85h40.4v22.31h-64.94V8.94Z"/>
      <path class="cls-2" d="M795.04,74.75h33.69v22.31h-33.69v45.73h42.4v22.31h-66.94V8.94h66.94v22.31h-42.4v43.5Z"/>
      <path class="cls-2" d="M903.91,165.11c-.29-1.04-.59-2.01-.9-2.9-.29-.89-.55-2-.77-3.33-.22-1.34-.38-3.06-.46-5.15-.07-2.08-.1-4.69-.1-7.81v-24.54c0-7.29-1.27-12.42-3.79-15.4-2.53-2.97-6.62-4.46-12.27-4.46h-8.48v63.58h-24.54V8.94h37.04c12.79,0,22.05,2.97,27.77,8.92,5.73,5.95,8.6,14.95,8.6,27v12.27c0,16.06-5.35,26.62-16.06,31.69,6.23,2.53,10.51,6.66,12.81,12.38,2.3,5.72,3.46,12.68,3.46,20.85v24.1c0,3.86.15,7.24.44,10.15.3,2.91,1.05,5.84,2.25,8.81h-25ZM877.14,31.25v47.96h9.6c4.61,0,8.21-1.19,10.81-3.56,2.61-2.39,3.92-6.7,3.92-12.94v-15.4c0-5.65-1.01-9.74-3.02-12.27-2.02-2.53-5.18-3.79-9.48-3.79h-11.83Z"/>
      <path class="cls-2" d="M1021.72,165.11h-24.77l-4.23-28.33h-30.13l-4.25,28.33h-22.52l24.98-156.17h35.92l25,156.17ZM965.72,115.58h23.65l-11.83-78.98-11.81,78.98Z"/>
      <path class="cls-2" d="M1025.96,8.94h75.85v22.31h-25.67v133.85h-24.54V31.25h-25.65V8.94Z"/>
      <path class="cls-2" d="M1135.05,129.19c0,5.66,1.15,9.64,3.46,11.94,2.3,2.31,5.39,3.46,9.25,3.46s6.96-1.15,9.27-3.46,3.46-6.28,3.46-11.94V44.86c0-5.65-1.16-9.63-3.46-11.94-2.31-2.3-5.4-3.46-9.27-3.46s-6.95,1.16-9.25,3.46-3.46,6.29-3.46,11.94v84.33ZM1110.5,46.42c0-12.64,3.19-22.34,9.58-29.1,6.4-6.78,15.63-10.17,27.67-10.17s21.28,3.39,27.67,10.17c6.4,6.77,9.6,16.47,9.6,29.1v81.21c0,12.64-3.2,22.35-9.6,29.13-6.39,6.77-15.61,10.15-27.67,10.15s-21.27-3.38-27.67-10.15c-6.39-6.78-9.58-16.48-9.58-29.13V46.42Z"/>
      <path class="cls-2" d="M1252.16,165.11c-.29-1.04-.59-2.01-.9-2.9-.29-.89-.55-2-.77-3.33-.22-1.34-.38-3.06-.46-5.15-.07-2.08-.1-4.69-.1-7.81v-24.54c0-7.29-1.27-12.42-3.79-15.4-2.53-2.97-6.62-4.46-12.27-4.46h-8.48v63.58h-24.54V8.94h37.04c12.79,0,22.05,2.97,27.77,8.92,5.73,5.95,8.6,14.95,8.6,27v12.27c0,16.06-5.35,26.62-16.06,31.69,6.23,2.53,10.51,6.66,12.81,12.38,2.3,5.72,3.46,12.68,3.46,20.85v24.1c0,3.86.15,7.24.44,10.15.3,2.91,1.05,5.84,2.25,8.81h-25ZM1225.39,31.25v47.96h9.6c4.61,0,8.21-1.19,10.81-3.56,2.61-2.39,3.92-6.7,3.92-12.94v-15.4c0-5.65-1.01-9.74-3.02-12.27-2.02-2.53-5.18-3.79-9.48-3.79h-11.83Z"/>
    </g>
  </g>
</svg>