<?xml version="1.0" encoding="UTF-8"?>
<svg id="Layer_1" data-name="Layer 1" xmlns="http://www.w3.org/2000/svg" xmlns:xlink="http://www.w3.org/1999/xlink" viewBox="0 0 1417.33 226.67">
  <defs>
    <style>
      .cls-1 {
        fill: none;
      }

      .cls-2 {
        fill: #3f3c4a;
      }

      .cls-3 {
        clip-path: url(#clippath-17);
      }

      .cls-4 {
        clip-path: url(#clippath-11);
      }

      .cls-5 {
        clip-path: url(#clippath-16);
      }

      .cls-6 {
        clip-path: url(#clippath-18);
      }

      .cls-7 {
        clip-path: url(#clippath-10);
      }

      .cls-8 {
        clip-path: url(#clippath-15);
      }

      .cls-9 {
        clip-path: url(#clippath-13);
      }

      .cls-10 {
        clip-path: url(#clippath-14);
      }

      .cls-11 {
        clip-path: url(#clippath-12);
      }

      .cls-12 {
        clip-path: url(#clippath-1);
      }

      .cls-13 {
        clip-path: url(#clippath-3);
      }

      .cls-14 {
        clip-path: url(#clippath-4);
      }

      .cls-15 {
        clip-path: url(#clippath-2);
      }

      .cls-16 {
        clip-path: url(#clippath-7);
      }

      .cls-17 {
        clip-path: url(#clippath-6);
      }

      .cls-18 {
        clip-path: url(#clippath-9);
      }

      .cls-19 {
        clip-path: url(#clippath-8);
      }

      .cls-20 {
        clip-path: url(#clippath-5);
      }

      .cls-21 {
        fill: #10b981;
      }

      .cls-22 {
        clip-path: url(#clippath);
      }
    </style>
    <clipPath id="clippath">
      <rect class="cls-1" y="2.67" width="1285.33" height="224"/>
    </clipPath>
    <clipPath id="clippath-1">
      <rect class="cls-1" x="1300" width="117.33" height="130.67"/>
    </clipPath>
    <clipPath id="clippath-2">
      <rect class="cls-1" x="1257.67" y="33.82" width="184" height="114" transform="translate(961.33 1386.6) rotate(-77.17)"/>
    </clipPath>
    <clipPath id="clippath-3">
      <rect class="cls-1" x="1257.67" y="33.82" width="184" height="114" transform="translate(961.33 1386.6) rotate(-77.17)"/>
    </clipPath>
    <clipPath id="clippath-4">
      <rect class="cls-1" x="1326.67" y="96" width="4" height="1.33"/>
    </clipPath>
    <clipPath id="clippath-5">
      <rect class="cls-1" x="1257.67" y="33.82" width="184" height="114" transform="translate(961.33 1386.6) rotate(-77.17)"/>
    </clipPath>
    <clipPath id="clippath-6">
      <rect class="cls-1" x="1257.67" y="33.82" width="184" height="114" transform="translate(961.33 1386.6) rotate(-77.17)"/>
    </clipPath>
    <clipPath id="clippath-7">
      <rect class="cls-1" x="1293.33" y="149.33" width="37.33" height="25.33"/>
    </clipPath>
    <clipPath id="clippath-8">
      <rect class="cls-1" x="1257.67" y="33.82" width="184" height="114" transform="translate(961.33 1386.6) rotate(-77.17)"/>
    </clipPath>
    <clipPath id="clippath-9">
      <rect class="cls-1" x="1257.67" y="33.82" width="184" height="114" transform="translate(961.33 1386.6) rotate(-77.17)"/>
    </clipPath>
    <clipPath id="clippath-10">
      <rect class="cls-1" x="1290.67" y="94.67" width="4" height="2.67"/>
    </clipPath>
    <clipPath id="clippath-11">
      <rect class="cls-1" x="1257.67" y="33.82" width="184" height="114" transform="translate(961.33 1386.6) rotate(-77.17)"/>
    </clipPath>
    <clipPath id="clippath-12">
      <rect class="cls-1" x="1257.67" y="33.82" width="184" height="114" transform="translate(961.33 1386.6) rotate(-77.17)"/>
    </clipPath>
    <clipPath id="clippath-13">
      <rect class="cls-1" x="1328" y="101.33" width="1.33" height="2.67"/>
    </clipPath>
    <clipPath id="clippath-14">
      <rect class="cls-1" x="1257.67" y="33.82" width="184" height="114" transform="translate(961.33 1386.6) rotate(-77.17)"/>
    </clipPath>
    <clipPath id="clippath-15">
      <rect class="cls-1" x="1257.67" y="33.82" width="184" height="114" transform="translate(961.33 1386.6) rotate(-77.17)"/>
    </clipPath>
    <clipPath id="clippath-16">
      <rect class="cls-1" x="1326.67" y="109.33" width="1.33" height="2.67"/>
    </clipPath>
    <clipPath id="clippath-17">
      <rect class="cls-1" x="1257.67" y="33.82" width="184" height="114" transform="translate(961.33 1386.6) rotate(-77.17)"/>
    </clipPath>
    <clipPath id="clippath-18">
      <rect class="cls-1" x="1257.67" y="33.82" width="184" height="114" transform="translate(961.33 1386.6) rotate(-77.17)"/>
    </clipPath>
  </defs>
  <g class="cls-22">
    <g>
      <path class="cls-2" d="M60.4,167.77c-.29-1.04-.59-2.01-.9-2.9-.29-.89-.55-2-.77-3.33-.22-1.34-.38-3.06-.46-5.15-.07-2.08-.1-4.69-.1-7.81v-24.54c0-7.29-1.27-12.42-3.79-15.4-2.53-2.97-6.62-4.46-12.27-4.46h-8.48v63.58H9.08V11.61h37.04c12.79,0,22.05,2.97,27.77,8.92,5.73,5.95,8.6,14.95,8.6,27v12.27c0,16.06-5.35,26.62-16.06,31.69,6.23,2.53,10.51,6.66,12.81,12.38,2.3,5.72,3.46,12.68,3.46,20.85v24.1c0,3.86.15,7.24.44,10.15.3,2.91,1.05,5.84,2.25,8.81h-25ZM33.63,33.92v47.96h9.6c4.61,0,8.21-1.19,10.81-3.56,2.61-2.39,3.92-6.7,3.92-12.94v-15.4c0-5.65-1.01-9.74-3.02-12.27-2.02-2.53-5.18-3.79-9.48-3.79h-11.83Z"/>
      <path class="cls-2" d="M178.21,167.77h-24.77l-4.23-28.33h-30.13l-4.25,28.33h-22.52L117.29,11.61h35.92l25,156.17ZM122.21,118.25h23.65l-11.83-78.98-11.81,78.98Z"/>
      <path class="cls-2" d="M244,84.56l-8.92,83.21h-33.69L184,11.61h23.85l13.17,123.15,11.83-123.15h23.65l12.27,124.04,12.71-124.04h21.44l-17.42,156.17h-32.56l-8.94-83.21Z"/>
      <path class="cls-2" d="M429.19,167.77h-24.77l-4.23-28.33h-30.13l-4.25,28.33h-22.52l24.98-156.17h35.92l25,156.17ZM373.19,118.25h23.65l-11.83-78.98-11.81,78.98Z"/>
      <path class="cls-2" d="M511.73,109.54v20.75c0,12.64-3.09,22.35-9.27,29.13-6.17,6.77-15.28,10.15-27.33,10.15s-21.16-3.38-27.33-10.15c-6.17-6.78-9.25-16.48-9.25-29.13V49.08c0-12.64,3.08-22.34,9.25-29.1,6.18-6.78,15.29-10.17,27.33-10.17s21.17,3.39,27.33,10.17c6.18,6.77,9.27,16.47,9.27,29.1v15.17h-23.21v-16.73c0-5.65-1.16-9.63-3.46-11.94-2.31-2.3-5.4-3.46-9.27-3.46s-6.95,1.16-9.25,3.46-3.46,6.29-3.46,11.94v84.33c0,5.66,1.15,9.6,3.46,11.83,2.3,2.22,5.39,3.33,9.25,3.33s6.96-1.11,9.27-3.33c2.3-2.23,3.46-6.18,3.46-11.83v-22.31h23.21Z"/>
      <path class="cls-2" d="M597.85,109.54v20.75c0,12.64-3.09,22.35-9.27,29.13-6.17,6.77-15.28,10.15-27.33,10.15s-21.16-3.38-27.33-10.15c-6.17-6.78-9.25-16.48-9.25-29.13V49.08c0-12.64,3.08-22.34,9.25-29.1,6.18-6.78,15.29-10.17,27.33-10.17s21.17,3.39,27.33,10.17c6.18,6.77,9.27,16.47,9.27,29.1v15.17h-23.21v-16.73c0-5.65-1.16-9.63-3.46-11.94-2.31-2.3-5.4-3.46-9.27-3.46s-6.95,1.16-9.25,3.46-3.46,6.29-3.46,11.94v84.33c0,5.66,1.15,9.6,3.46,11.83,2.3,2.22,5.39,3.33,9.25,3.33s6.96-1.11,9.27-3.33c2.3-2.23,3.46-6.18,3.46-11.83v-22.31h23.21Z"/>
      <path class="cls-2" d="M637.32,77.42h33.69v22.31h-33.69v45.73h42.4v22.31h-66.94V11.61h66.94v22.31h-42.4v43.5Z"/>
      <path class="cls-2" d="M694.87,11.61h24.54v133.85h40.4v22.31h-64.94V11.61Z"/>
      <path class="cls-2" d="M795.04,77.42h33.69v22.31h-33.69v45.73h42.4v22.31h-66.94V11.61h66.94v22.31h-42.4v43.5Z"/>
      <path class="cls-2" d="M903.91,167.77c-.29-1.04-.59-2.01-.9-2.9-.29-.89-.55-2-.77-3.33-.22-1.34-.38-3.06-.46-5.15-.07-2.08-.1-4.69-.1-7.81v-24.54c0-7.29-1.27-12.42-3.79-15.4-2.53-2.97-6.62-4.46-12.27-4.46h-8.48v63.58h-24.54V11.61h37.04c12.79,0,22.05,2.97,27.77,8.92,5.73,5.95,8.6,14.95,8.6,27v12.27c0,16.06-5.35,26.62-16.06,31.69,6.23,2.53,10.51,6.66,12.81,12.38,2.3,5.72,3.46,12.68,3.46,20.85v24.1c0,3.86.15,7.24.44,10.15.3,2.91,1.05,5.84,2.25,8.81h-25ZM877.14,33.92v47.96h9.6c4.61,0,8.21-1.19,10.81-3.56,2.61-2.39,3.92-6.7,3.92-12.94v-15.4c0-5.65-1.01-9.74-3.02-12.27-2.02-2.53-5.18-3.79-9.48-3.79h-11.83Z"/>
      <path class="cls-2" d="M1021.72,167.77h-24.77l-4.23-28.33h-30.13l-4.25,28.33h-22.52l24.98-156.17h35.92l25,156.17ZM965.72,118.25h23.65l-11.83-78.98-11.81,78.98Z"/>
      <path class="cls-2" d="M1025.96,11.61h75.85v22.31h-25.67v133.85h-24.54V33.92h-25.65V11.61Z"/>
      <path class="cls-2" d="M1135.05,131.86c0,5.66,1.15,9.64,3.46,11.94,2.3,2.31,5.39,3.46,9.25,3.46s6.96-1.15,9.27-3.46,3.46-6.28,3.46-11.94V47.52c0-5.65-1.16-9.63-3.46-11.94-2.31-2.3-5.4-3.46-9.27-3.46s-6.95,1.16-9.25,3.46-3.46,6.29-3.46,11.94v84.33ZM1110.5,49.08c0-12.64,3.19-22.34,9.58-29.1,6.4-6.78,15.63-10.17,27.67-10.17s21.28,3.39,27.67,10.17c6.4,6.77,9.6,16.47,9.6,29.1v81.21c0,12.64-3.2,22.35-9.6,29.13-6.39,6.77-15.61,10.15-27.67,10.15s-21.27-3.38-27.67-10.15c-6.39-6.78-9.58-16.48-9.58-29.13V49.08Z"/>
      <path class="cls-2" d="M1252.16,167.77c-.29-1.04-.59-2.01-.9-2.9-.29-.89-.55-2-.77-3.33-.22-1.34-.38-3.06-.46-5.15-.07-2.08-.1-4.69-.1-7.81v-24.54c0-7.29-1.27-12.42-3.79-15.4-2.53-2.97-6.62-4.46-12.27-4.46h-8.48v63.58h-24.54V11.61h37.04c12.79,0,22.05,2.97,27.77,8.92,5.73,5.95,8.6,14.95,8.6,27v12.27c0,16.06-5.35,26.62-16.06,31.69,6.23,2.53,10.51,6.66,12.81,12.38,2.3,5.72,3.46,12.68,3.46,20.85v24.1c0,3.86.15,7.24.44,10.15.3,2.91,1.05,5.84,2.25,8.81h-25ZM1225.39,33.92v47.96h9.6c4.61,0,8.21-1.19,10.81-3.56,2.61-2.39,3.92-6.7,3.92-12.94v-15.4c0-5.65-1.01-9.74-3.02-12.27-2.02-2.53-5.18-3.79-9.48-3.79h-11.83Z"/>
    </g>
  </g>
  <g class="cls-12">
    <g class="cls-15">
      <g class="cls-13">
        <path class="cls-21" d="M1329.53,96.23c1.79-1.74,3.15-4.31,6.22-5.38,1.81-.63,3.24.77,3.53.43.11-.13-.17-1.42.69-2.14,4.06-3.4,19.94-4.21,22.63-7.36.48-.55.61-1.56.79-2.31l4.13,1.61c3.67-5.42,12.06-7.59,16.9-12.08,14.53-13.43,13.58-30.34,2.28-45.4-8.73-11.64-13.78-12.64-27.18-8.58-21.98,6.64-37.65,20.57-39.43,44.58-5.44-2.35-11.87.13-16.5-3.68-.59-.18-.56,2.86-2.47,1.57-1.51-1.02,1.24-7.6.03-10.1,1.17-2.38,2.57-4.66,3.68-7.07,2.09-4.51,2.82-6.44,4.81-10.96,3.98-9,12.89-10.45,18.6-15.13,6.66-5.46,12.23-5.95,20.47-9.27,1.19-.48,1.79-2.33,2.99-2.74,25.97-8.76,59.86,17.06,63.99,42.99,2.81,17.63-8.21,31.15-23.01,39.07-2.66,1.42-4.12,4.48-8.89,3.18l.59,2.33c-3.23-2.56-3.9-.05-6.41.65-6.41,1.78-2.85.94-6.32,3.2-3.09,2.01-13.31,4.36-18.07,6.97-8.3,4.55-13.8,9.71-17.11,18.88-1.22,3.39-.69,7.86-3.44,10.41-2.69,1.14-7.22-4.23-9.72-4.86-1.55-.4-3.03,1.45-4.24.86-.82-.4-1.33-2.06-1.93-2.23-1.06-.32-3.36,3.15-5.4,1.85-1.73-2.05,5.42-17.85,7.27-20.83,2.17-3.52,4.38-6.26,8.17-7.89-.41.43-5.15,8.86-5.86,10.24-1.1,2.14-1.72,4.98-2.59,7.28,3.72,3.65,5.5-5.14,9.07-.69,1.04-3.19,2.97-6.15,4.81-8.92,1.84-2.76,9.4-7.9,1.65-9.63-1.23,1.62,1.78,4.12,1.14,4.68-.07.06-1.24-.51-1.8-.06-1.52,1.21-1.48,4.7-3.61,4.4,1.74-3.24,5.81-8.4-.44-7.87h.02ZM1308.36,40.26l-.24,1.06c.77-.2.85-.55.24-1.06ZM1402.01,66.04l.48-2.1-1.04-.23-.48,2.1,1.04.23ZM1403.17,70.76l-2.1-.48-.24,1.04,2.11.48.23-1.04ZM1398.51,74.15l-.24,1.06c.77-.2.85-.55.24-1.06ZM1396.97,76.02l-.24,1.06c.77-.2.85-.55.24-1.06ZM1394.71,81.06l-.24,1.06c.77-.2.84-.55.24-1.06ZM1367.78,89.4l-2.1-.48-.23,1.04,2.1.48.23-1.04ZM1362.55,90.42l-.24,1.06c.77-.2.84-.55.24-1.06ZM1360.72,91.12l-2.11-.48-.48,2.11,2.58-1.63h0ZM1339.23,95.11l-.24,1.06c.77-.19.84-.55.24-1.06Z"/>
      </g>
    </g>
  </g>
  <g class="cls-14">
    <g class="cls-20">
      <g class="cls-17">
        <path class="cls-21" d="M1329.53,96.23c-.7.67-2.27.48-2.35.58.99-.43,1.28-.49,2.35-.58Z"/>
      </g>
    </g>
  </g>
  <g class="cls-16">
    <g class="cls-19">
      <g class="cls-18">
        <path class="cls-21" d="M1294.37,162.75l1.96.32-.2-3.27,4.6-.64-3.04-1.23c.64-5.73,2.17-8.13,8.16-7.89,2.66.11,15.42,1.97,17.71,2.86,11.6,4.52,7.45,16.58-2.14,20.47-4.66,1.88-15.35-.82-20.99.55-6.14-2.08-4.22-6.33-6.07-11.17h.01ZM1300.66,161.94l-.24,1.06c.77-.19.84-.55.24-1.06Z"/>
      </g>
    </g>
  </g>
  <g class="cls-7">
    <g class="cls-4">
      <g class="cls-11">
        <path class="cls-21" d="M1291.9,95.45l2.1.48-.23,1.04-2.1-.48.23-1.04Z"/>
      </g>
    </g>
  </g>
  <g class="cls-9">
    <g class="cls-10">
      <g class="cls-8">
        <path class="cls-21" d="M1328.85,101.64c.61.51.53.86-.24,1.06l.24-1.06Z"/>
      </g>
    </g>
  </g>
  <g class="cls-5">
    <g class="cls-3">
      <g class="cls-6">
        <path class="cls-21" d="M1326.92,110.1c.61.51.53.85-.24,1.06l.24-1.06Z"/>
      </g>
    </g>
  </g>
</svg>