<?xml version="1.0" encoding="UTF-8"?>
<svg id="Layer_1" data-name="Layer 1" xmlns="http://www.w3.org/2000/svg" xmlns:xlink="http://www.w3.org/1999/xlink" viewBox="0 0 460 432">
  <defs>
    <style>
      .cls-1 {
        fill: none;
      }

      .cls-2 {
        fill: #ff3131;
      }

      .cls-3 {
        fill: #f1b54c;
      }

      .cls-4 {
        fill: #e16e38;
      }

      .cls-5 {
        clip-path: url(#clippath);
      }
    </style>
    <clipPath id="clippath">
      <rect class="cls-1" width="460" height="432"/>
    </clipPath>
  </defs>
  <g class="cls-5">
    <path class="cls-4" d="M405.83,4.87c-1.48.16-4.62,1.07-5.01,1.46-.23.22-.91.41-1.52.42-.6,0-1.59.39-2.18.86-.6.46-1.42.85-1.82.85-.93.01-4.38,1.13-6.4,2.07-.83.39-1.91.77-2.38.85-.48.07-1.55.47-2.38.87s-1.65.74-1.8.75c-.16,0-.43.16-.61.34-.18.18-.76.32-1.29.32s-1.06.24-1.17.55c-.11.3-1.26.91-2.53,1.35-1.28.45-2.51.98-2.74,1.19-.22.21-.76.38-1.19.38s-.79.15-.79.32-1.1.81-2.46,1.41c-1.35.59-3.71,1.71-5.24,2.47-1.54.77-2.96,1.29-3.17,1.17-.2-.13-.37-.04-.37.19s-.63.56-1.38.73c-.76.17-1.65.57-1.98.9s-1.11.71-1.76.84c-.64.14-1.45.42-1.81.64-.35.21-3.88,2.03-7.83,4.03-6.95,3.52-7.77,3.96-10.56,5.71-.71.45-1.54.77-1.84.7s-.54.07-.54.31-1.07.96-2.38,1.62c-1.31.66-2.38,1.34-2.38,1.52s-.73.54-1.62.83-1.92.75-2.27,1.03c-.36.28-1.92,1.26-3.46,2.19-1.54.93-2.88,1.84-2.95,2.03s-.52.35-.98.35-.96.29-1.09.65c-.14.36-.49.65-.8.65s-.79.29-1.08.64c-.29.35-1.05.91-1.68,1.23-1.74.91-7.17,4.27-7.42,4.59-.12.16-1.38.95-2.81,1.75-1.43.8-2.69,1.58-2.81,1.74-.44.58-5.53,3.88-5.99,3.88-.26,0-1.11.55-1.89,1.23-.78.68-1.62,1.31-1.85,1.41-1.18.47-10.52,6.93-11.43,7.91-.58.62-1.21,1.13-1.41,1.13-.43,0-3.19,1.98-4.7,3.36-.58.54-2.13,1.9-3.44,3.03-1.31,1.13-3.34,2.97-4.52,4.1s-2.26,2.06-2.41,2.06c-.34,0-3.46,2.85-3.46,3.17,0,.13-1.1,1.27-2.45,2.54-1.34,1.26-5.13,4.92-8.4,8.14-3.27,3.21-6.77,6.52-7.77,7.35-1.97,1.65-6.35,5.94-8.42,8.27-.71.8-2.13,2.18-3.14,3.05s-1.83,1.79-1.83,2.02-.44.79-.97,1.22c-2.05,1.66-4.48,5.17-5,7.21-.71,2.8-2.26,4.95-7.72,10.77-6.66,7.09-10.57,11.89-16.99,20.86-3.14,4.39-8.33,11.35-11.54,15.46-5.45,7-8.16,10.85-13.39,19.04-1.17,1.83-4.22,6.46-6.78,10.28s-5.34,8.32-6.18,9.99l-1.53,3.04,1.85,2.1c4.23,4.8,17.69,19.07,21.05,22.34l3.62,3.52,2.41-2.87c6.44-7.65,10.2-11.67,14.34-15.32,2.49-2.19,6.93-6.17,9.86-8.84,7.02-6.39,14.17-12.38,21.09-17.66,3.09-2.36,6.74-5.19,8.11-6.29,4.98-3.99,10.08-3.97,12.79.04.89,1.31.99,1.88.81,4.32-.26,3.57-1.17,6.22-3.66,10.69-4.21,7.58-14.46,19.57-23.48,27.5-3.2,2.82-10.15,9.43-15.43,14.69l-9.6,9.58,2.15,2.41c3.19,3.58,8.08,9.46,10.86,13.06,1.35,1.75,3.83,4.68,5.52,6.5s3.06,3.62,3.06,4,.11.69.24.69c.44,0,2.98-1.4,8.63-4.75,10.03-5.95,52.31-27.33,62.08-31.39,6.43-2.67,16.84-8.7,19.46-11.28.83-.82,3.39-3.29,5.67-5.48,4.39-4.21,10.69-10.31,11.42-11.05.24-.24,2.14-2.08,4.22-4.09s3.8-3.82,3.83-4.04c.02-.21,1.27-1.46,2.77-2.77,1.5-1.31,2.74-2.53,2.77-2.72.02-.19,1.06-1.39,2.31-2.66,1.24-1.28,2.83-2.97,3.51-3.77,1.31-1.53,7.76-8.52,11.2-12.14,1.13-1.19,2.05-2.32,2.05-2.51s.48-.8,1.07-1.36c.59-.56,1.08-1.27,1.08-1.57,0-.3,1.01-1.6,2.22-2.89,2.08-2.19,2.61-2.92,3.9-5.32.28-.53.88-1.08,1.31-1.22.44-.14.8-.54.8-.89s.29-.74.65-.88.65-.53.65-.86.29-.73.65-.86c.36-.14.65-.51.65-.82s.15-.63.32-.71c.31-.14,2.26-2.41,4-4.69.46-.59,1.72-2.15,2.81-3.46,2.72-3.27,2.67-3.2,4.15-5.4.72-1.08,1.46-1.96,1.64-1.96s.65-.69,1.05-1.53,1.02-1.64,1.38-1.78c.36-.14.65-.52.65-.85s.16-.6.35-.6,1.2-1.22,2.25-2.7c1.87-2.66,5.48-7.26,6.03-7.68.15-.11,1.21-1.44,2.36-2.94,1.14-1.5,2.4-3.06,2.81-3.46.4-.41,1.3-1.52,1.98-2.46.69-.95,1.46-1.87,1.71-2.04.26-.17.46-.46.48-.65.04-.67,2.87-4.89,3.28-4.89.23,0,.63-.58.87-1.3.25-.71.61-1.3.8-1.3.31,0,2.29-2.91,2.35-3.46.02-.11.56-.91,1.22-1.77.65-.85,1.19-1.72,1.19-1.92s.35-.77.78-1.26c1.06-1.21,7.67-11.87,8.35-13.46.3-.7,1.03-1.82,1.63-2.47.59-.66.94-1.19.76-1.19-.35,0,2.25-4.8,4.92-9.08.22-.35.69-1.33,1.04-2.16s.93-2,1.28-2.59c.35-.6,1.45-2.83,2.43-4.98,2.91-6.34,3.57-7.75,3.95-8.43.93-1.67,3.52-7.2,3.59-7.68.05-.3.32-.78.6-1.06s.52-.68.52-.89.48-1.44,1.08-2.74c.6-1.3,1.08-2.6,1.09-2.89,0-.29.27-1.04.59-1.67.57-1.09.46-1.31-2.65-5.41-6.09-8.01-11.55-14.21-19.36-22.01-9.49-9.47-22.12-20.79-23.09-20.69ZM370.43,43.79c5.64.04,11.45,1.62,18.27,4.74,3.7,1.7,6.11,3.13,7.75,4.58,2.8,2.49,6.29,7.55,7.55,10.92.49,1.32,1.56,3.71,2.36,5.32,3.52,7.04,3.91,11.39,1.63,18.35-1.64,5.04-3.89,8.55-7.65,11.95-4.84,4.36-10.78,7.3-19.12,9.45-8.02,2.07-12.07,1.76-20.43-1.55-5.97-2.36-8.14-3.85-14.34-9.87-8.68-8.43-11.17-13.02-11.52-21.25-.26-5.98.26-8.63,2.55-13.06,3.47-6.72,8.41-11.45,15.73-15.09,6.11-3.04,11.57-4.54,17.21-4.5ZM369.31,48.53c1.34.06,2.69.12,4.03.18M213.2,132.36l-2.67.16c-1.47.08-3.16.27-3.75.41-1.16.27-2.78.45-7.57.81-3.77.29-17.32,2.64-18.92,3.28-.65.26-1.46.36-1.81.23-.34-.14-.85.04-1.14.38-.28.34-.67.53-.85.41-.31-.19-3.14.52-6.27,1.57-.71.24-1.89.54-2.6.66s-1.98.58-2.81,1.02c-1.83.96-5.48,2.16-6.57,2.16-.43,0-.79.15-.79.32,0,.3-3.72,2.03-4.41,2.05-.17,0-.55.25-.84.55s-.94.55-1.43.55c-.48.01-1.65.59-2.58,1.3-.94.7-2.04,1.29-2.46,1.29s-.89.19-1.03.43-1.08.82-2.08,1.31c-1,.48-3.47,1.93-5.49,3.22-2.03,1.29-4.07,2.53-4.54,2.76-.48.22-1.34.91-1.92,1.53-.58.63-1.4,1.13-1.84,1.13-.5,0-.79.32-.79.86,0,.52-.29.86-.71.86-.88,0-5.38,4.02-17.4,15.57-2.11,2.03-4.77,4.46-5.91,5.41-1.14.95-2.87,2.52-3.84,3.47-.97.95-3.61,3.29-5.86,5.19-2.25,1.9-4.42,3.74-4.82,4.1-3.41,3.01-4.34,3.85-6.29,5.69-1.22,1.16-2.44,2.1-2.7,2.1s-.48.29-.48.65-.18.65-.39.65c-.38,0-3.88,3.54-7.71,7.79-.97,1.07-2.29,2.53-2.93,3.24-2.11,2.33-4.54,6.2-4.52,7.22.02,1.35.95,2.48,2.43,2.94,1.17.35,5.26.24,9.02-.23.95-.13,2.51-.3,3.46-.4.95-.09,3.87-.67,6.48-1.28,2.62-.61,5.1-1.11,5.52-1.11s.76-.2.76-.44.63-.44,1.41-.45c.77-.01,2.18-.31,3.14-.66.95-.36,2.26-.73,2.9-.82.64-.1,1.71-.45,2.38-.78.67-.33,2.65-.95,4.41-1.36,1.76-.42,4.04-1.23,5.06-1.8,1.03-.57,2.26-1.04,2.76-1.04s1.23-.17,1.65-.38c.42-.21,1.24-.59,1.83-.84.59-.24,1.77-.74,2.6-1.1.83-.35,2.68-.98,4.11-1.38,1.43-.41,2.98-.88,3.46-1.05,2.19-.81,4.03-1.3,4.83-1.3.47,0,1.02-.15,1.19-.33.38-.38,1.08-.45,7.36-.74,4.56-.21,7.01.15,10.41,1.53,2.68,1.09,2.48,1.24,6.55-5.01,2.11-3.23,4.7-7.08,5.76-8.56,1.06-1.47,3.16-4.71,4.66-7.19,2.99-4.92,6.41-9.68,12.46-17.34,2.17-2.74,6.44-8.39,9.5-12.55,7.24-9.85,11.52-15.04,17.64-21.43l5-5.22ZM245.29,196.75c-1.12.1-2.57.83-4.13,2.13-1.19.98-4.49,3.55-7.35,5.7-6.17,4.66-16.28,13.09-21.42,17.85-2.02,1.88-5.98,5.44-8.8,7.91-5.31,4.66-12.37,12.4-17.8,19.52-1.73,2.26-5.11,6.25-7.53,8.87-2.41,2.61-5.11,5.83-5.99,7.14-.89,1.31-2.39,3.26-3.35,4.33-1.85,2.06-4.44,8.46-3.95,9.74.57,1.49,3.83-.05,11.55-5.51,8.82-6.23,16.83-12.97,24.63-20.72,8.08-8.03,17.25-16.84,23.73-22.81,5.34-4.91,14.01-14.88,17.21-19.79,4.23-6.48,6.29-12.4,4.82-13.86-.4-.4-.95-.56-1.63-.5h0ZM154.09,223.04c-.18,0-.69.7-1.15,1.55-.45.84-1.52,2.15-2.37,2.89-.84.74-1.73,1.69-1.97,2.1-1.19,2.06-1.93,3.38-2.93,5.19l-1.09,1.99,2.35,2.64c1.65,1.85,2.57,2.57,3.09,2.4.49-.16.57-.11.22.14-1.05.77,9.73,10.89,17.75,16.68,1.23.89,2.26,1.61,2.29,1.62.22.04,9.24-10.09,9.24-10.38,0-.2-2.58-2.96-5.74-6.13-3.17-3.17-8.82-9.12-12.56-13.22-3.75-4.1-6.96-7.46-7.13-7.46ZM144.65,243.45c-.18-.33-11.52,5.63-12.73,6.68-.38.33-.92.59-1.2.59s-.64.29-.77.65c-.14.35-.59.65-1,.65s-1.1.39-1.54.86c-.43.48-.95.86-1.15.86-.5,0-8.33,5.45-9.02,6.27-.3.36-.72.66-.94.66s-.63.2-.92.44c-1.98,1.67-2.65,2.16-2.95,2.16-.19,0-.7.35-1.13.78-.42.43-1.93,1.74-3.35,2.92-2.62,2.18-5.15,4.39-7.02,6.14-.57.54-1.1.97-1.18.97-.48,0-5.01,4.56-5.01,5.04,0,.32-.18.58-.41.58-.48,0-6.52,6.09-6.52,6.58,0,.19-.19.34-.42.34s-1.26.91-2.27,2.03-3.55,3.78-5.64,5.92c-2.08,2.14-3.8,4-3.8,4.14,0,.14-1.66,1.98-3.68,4.11-2.02,2.13-3.66,4.03-3.66,4.22s-1.12,1.48-2.49,2.86-3.04,3.18-3.72,4c-1.7,2.05-5.47,6.03-5.47,5.78,0-.11-1.18.94-2.62,2.34-3.17,3.09-3.59,4.63-1.89,6.87,1.21,1.59,2.33,1.79,4.6.83,1.48-.63,5.03-1.57,6.74-1.8.55-.07,1.23-.33,1.53-.57.3-.26.79-.29,1.12-.08.67.42.04,1.45-3.24,5.29-1.05,1.24-1.92,2.42-1.92,2.63s-.64.99-1.41,1.76c-.78.76-1.8,1.92-2.27,2.59-.47.67-1.59,2.2-2.48,3.4s-1.62,2.35-1.62,2.57-.33.39-.72.39-.59.13-.44.28-.3,1.01-1.01,1.9c-.71.89-1.29,1.73-1.29,1.86s-1.51,2.24-3.36,4.7c-1.84,2.45-3.73,5.04-4.18,5.76s-1.15,1.59-1.54,1.95c-.4.36-.99,1.28-1.33,2.06-.34.77-.74,1.4-.91,1.4s-.74.73-1.28,1.63c-.55.89-1.2,1.82-1.47,2.05-1.38,1.26-6.06,8.29-7.41,11.14-.54,1.13-1.18,2.06-1.42,2.06s-.74.63-1.11,1.41c-.36.77-1.44,2.77-2.39,4.43-.94,1.67-1.9,3.45-2.13,3.96s-.63,1-.89,1.09-.54.45-.61.8c-.3,1.51-2.75,5.92-4.04,7.27-.3.31-.54.77-.54,1.02s-.58,1.31-1.3,2.37c-.72,1.06-1.3,2.09-1.3,2.31s-.83,1.63-1.84,3.14c-2.53,3.79-2.78,4.2-3.83,6.14-.51.93-1.19,1.97-1.52,2.3-.33.33-.6.82-.6,1.08s-.74,1.37-1.65,2.46c-1.61,1.94-3.11,4.65-3.11,5.63s1.33,3.05,1.96,3.05c.35,0,.64.22.64.48,0,.29.31.35.76.17.42-.17,1.34-.48,2.06-.69s1.94-.96,2.72-1.67,2.24-1.86,3.24-2.56c1-.69,2.32-1.72,2.94-2.28.61-.56,2.07-1.7,3.24-2.52s2.39-1.75,2.7-2.06c.32-.3.7-.55.87-.56.16,0,.88-.54,1.59-1.2s1.92-1.58,2.68-2.05c.76-.47,2.84-1.88,4.64-3.12,1.79-1.25,3.37-2.28,3.51-2.28s.68-.4,1.2-.9c.89-.83,3.09-2.33,7.73-5.26,3.05-1.93,3.52-2.24,4.42-3.04.47-.42,1.03-.76,1.23-.76s1.42-.78,2.71-1.73c1.29-.95,2.55-1.73,2.8-1.73s.88-.49,1.39-1.08c.52-.59,1.13-1.08,1.36-1.08s1.25-.68,2.27-1.51,2.03-1.52,2.25-1.52.76-.39,1.18-.86c.43-.48,1.04-.86,1.34-.86s.72-.26.91-.57c.3-.49,2.74-2.26,6.4-4.62.55-.35,1.56-1.09,2.23-1.64,4.31-3.46,6.2-4.85,6.61-4.85.25,0,.46-.17.46-.39s.31-.51.68-.65c.51-.2.45.05-.24,1.03-.73,1.02-.82,1.46-.44,2.16.26.48.33.88.16.88s.24.58.92,1.29c1.71,1.78,3.03,1.46,5.73-1.4.61-.66,1.31-1.19,1.54-1.19.38,0,1.21-.67,5.18-4.14.66-.58,1.48-1.05,1.84-1.05s.65-.24.67-.54c.01-.3,1.39-1.61,3.06-2.92,1.67-1.31,3.66-2.92,4.41-3.57s2.83-2.41,4.62-3.89,3.31-2.84,3.39-3.01c.07-.17.85-.75,1.73-1.29,2.21-1.36,3.1-2.18,3.1-2.83,0-.3.29-.55.64-.55s1.03-.43,1.51-.95.88-.72.88-.45-.46.99-1.02,1.59c-.56.6-1.64,2.32-2.39,3.81s-2.23,4.27-3.29,6.17c-1.06,1.91-2.64,4.92-3.51,6.7-.88,1.79-1.81,3.52-2.07,3.85-.76.95-1.45,4.58-1.07,5.61.64,1.73,3.89,2.34,5.48,1.03.51-.42,1.6-1.24,2.43-1.84.83-.6,1.53-1.33,1.53-1.63,0-.3.31-.54.67-.54s.78-.29.91-.65c.14-.36.41-.65.61-.65s1.29-.88,2.43-1.95c1.13-1.07,2.41-2.06,2.83-2.19.42-.13.77-.48.77-.77s.44-.81.97-1.16,2.09-1.71,3.46-3.02,3.32-3.1,4.33-3.98c6.05-5.28,16.57-15.64,26.28-25.88,3.21-3.39,6.4-6.67,7.08-7.29.68-.63,1.7-1.57,2.27-2.09.57-.52,1.03-1.08,1.03-1.24s1.6-1.89,3.57-3.84c4.39-4.36,7.24-7.44,10.05-10.83,3.36-4.07,3.82-4.59,5.22-6.02.72-.73,1.59-1.89,1.93-2.56.34-.67.97-1.41,1.4-1.64.42-.23.77-.8.77-1.27s.16-.85.35-.85c.42,0,3.98-5.07,3.98-5.66,0-.22.16-.4.36-.4s.57-.46.83-1.02c.43-.94.03-1.47-5.32-6.98l-5.79-5.96-3.15,2.73c-1.73,1.5-4.81,4.32-6.83,6.28-4.25,4.1-15.43,13.91-26.28,23.04-15.06,12.67-18.48,14.7-20.26,11.98-.95-1.46-.66-2.33,2.42-7.08,1.45-2.23,2.57-4.12,2.49-4.19-.07-.08-2.27,1.82-4.89,4.22-2.61,2.4-7.18,6.27-10.15,8.58-2.97,2.32-7.07,5.75-9.1,7.61-2.03,1.87-5.15,4.66-6.92,6.21-1.78,1.55-5.49,4.86-8.26,7.35-2.77,2.5-6.07,5.24-7.35,6.1-6.6,4.43-10.03,6.44-10.97,6.44-1.32,0-2.39-1.07-2.39-2.39,0-1.14,6.89-10.82,20.35-28.61,8.56-11.32,12.29-16.53,12.02-16.81-.27-.27-6.52,3.71-9.63,6.12-3.94,3.05-6.31,3.1-6.31.11,0-1.55,14.36-20.37,24.31-31.84,13.98-16.13,25.37-28,32.47-33.83,1.84-1.51,3.35-2.92,3.35-3.13s-1.51-1.98-3.34-3.94c-1.84-1.96-3.38-3.63-3.42-3.7ZM305.35,251.15l-2.67,1.49c-1.47.82-5.5,2.74-8.95,4.27-3.45,1.53-11.65,5.44-18.21,8.68-6.57,3.24-12.05,5.9-12.18,5.9-.51,0-25.48,13.24-30.17,16-2.74,1.61-6.96,3.92-9.39,5.14-4.59,2.3-6.19,3.57-6.19,4.92,0,.74-2.28,8.85-2.89,10.29-.15.35-.32.84-.38,1.08-.41,1.71-2.88,8.64-3.56,10.01-.46.92-.98,2.24-1.15,2.94-.17.69-.68,1.74-1.15,2.33-.46.58-.84,1.33-.84,1.66s-.18.93-.39,1.35c-.38.7-1.6,3.33-4.75,10.16-.74,1.6-1.35,3.17-1.35,3.48s-.23.79-.51,1.08c-.28.28-.58.94-.66,1.47-.14.89-.69,2.18-3.39,7.92-.56,1.19-1.15,2.7-1.3,3.35-.16.65-.44,1.19-.64,1.19s-.48.44-.64.97c-.36,1.26-1.34,3.56-2.4,5.67-.46.91-.84,1.85-.84,2.07s-.4,1.23-.88,2.23c-1.89,3.91-1.53,7.04.89,7.83,1.59.52,4.98.08,7.56-.98,3.84-1.59,9.14-4.12,9.52-4.54.23-.27,1.35-.92,2.48-1.45,1.13-.54,2.06-1.18,2.06-1.43s.17-.36.39-.23c.21.13.62-.05.92-.41.29-.35.71-.65.93-.65s.63-.19.92-.42c2.4-1.96,3.29-2.6,3.61-2.6.2,0,1.07-.64,1.93-1.41,1.8-1.62,2.81-2.32,4.16-2.91.53-.23,1.21-.81,1.51-1.3s.75-.88.99-.88,1.02-.59,1.73-1.3c.71-.72,1.49-1.49,1.73-1.73.44-.43,5.57-4.6,6.64-5.4.32-.24,1.22-1.02,2-1.73s2.06-1.78,2.83-2.38c.78-.59,1.72-1.45,2.11-1.9s1.04-1.14,1.45-1.52c2.41-2.23,4.25-3.91,5.86-5.36,1.01-.9,1.82-1.83,1.82-2.05s.22-.42.49-.42,1.19-.67,2.05-1.47c.86-.81,2.64-2.49,3.94-3.73,1.31-1.24,3.1-2.74,3.99-3.33.89-.59,1.72-1.44,1.86-1.87.14-.44.58-.91.99-1.04.4-.13,1.42-.93,2.25-1.78,2.94-3,4.54-4.51,4.79-4.51.14,0,1.34-1.03,2.68-2.28,1.33-1.24,3.6-3.34,5.03-4.65,1.43-1.31,2.61-2.58,2.63-2.81.02-.24.61-.82,1.32-1.3.71-.48,1.3-.99,1.3-1.14s.73-1.06,1.62-2.03c.9-.97,2.02-2.27,2.49-2.9s1.5-1.88,2.27-2.78,1.41-1.86,1.41-2.14.18-.48.39-.48.59-.59.84-1.3.61-1.3.81-1.3.66-.63,1.03-1.41c.38-.77,1.29-2.67,2.04-4.22.74-1.55,1.59-3.69,1.87-4.76.29-1.07.57-2.14.64-2.38.93-3.3,1.54-6.7,1.71-9.52.36-6.13.55-9.02.77-12.23l.21-3.14ZM196.48,264.91l-5.34,4.42c-2.94,2.43-5.4,4.58-5.47,4.78-.07.2,3.39,3.96,7.7,8.36,5.73,5.85,8.66,8.49,10.89,9.84,1.68,1.01,3.26,2.17,3.51,2.58.31.5.69.63,1.15.4.38-.2,1.41-.67,2.29-1.05.88-.38,1.72-.89,1.86-1.12.14-.23.64-.42,1.11-.42s1.62-.51,2.56-1.14l1.71-1.14-3.95-4.16c-2.17-2.29-5.42-6.11-7.22-8.49s-4.35-5.49-5.67-6.92-3.01-3.34-3.76-4.27l-1.36-1.67ZM98.64,362.34c.23,0,.43.27.43.6s-.32.72-.7.87c-.51.19-.63.08-.43-.42.15-.38.27-.77.27-.87s.19-.18.43-.18ZM17.55,413.12c.12-.02.19.04.19.16,0,.24-.29.55-.65.69-.35.14-.65.18-.65.1s.29-.39.65-.69c.19-.16.35-.24.46-.26Z"/>
    <path class="cls-3" d="M405.83,4.87c-1.48.16-4.62,1.07-5.01,1.46-.23.22-.91.41-1.52.42-.6,0-1.59.39-2.18.86-.6.46-1.42.85-1.82.85-.93.01-4.38,1.13-6.4,2.07-.83.39-1.91.77-2.38.85-.48.07-1.55.47-2.38.87s-1.65.74-1.8.75c-.16,0-.43.16-.61.34-.18.18-.76.32-1.29.32s-1.06.24-1.17.55c-.11.3-1.26.91-2.53,1.35-1.28.45-2.51.98-2.74,1.19-.22.21-.76.38-1.19.38s-.79.15-.79.32-1.1.81-2.46,1.41c-1.35.59-3.71,1.71-5.24,2.47-1.54.77-2.96,1.29-3.17,1.17-.2-.13-.37-.04-.37.19s-.63.56-1.38.73c-.76.17-1.65.57-1.98.9s-1.11.71-1.76.84c-.64.14-1.45.42-1.81.64-.35.21-3.88,2.03-7.83,4.03-6.95,3.52-7.77,3.96-10.56,5.71-.71.45-1.54.77-1.84.7s-.54.07-.54.31-1.07.96-2.38,1.62c-1.31.66-2.38,1.34-2.38,1.52s-.73.54-1.62.83-1.92.75-2.27,1.03c-.36.28-1.92,1.26-3.46,2.19-1.54.93-2.88,1.84-2.95,2.03s-.52.35-.98.35-.96.29-1.09.65c-.14.36-.49.65-.8.65s-.79.29-1.08.64c-.29.35-1.05.91-1.68,1.23-1.74.91-7.17,4.27-7.42,4.59-.12.16-1.38.95-2.81,1.75-1.43.8-2.69,1.58-2.81,1.74-.44.58-5.53,3.88-5.99,3.88-.26,0-1.11.55-1.89,1.23-.78.68-1.62,1.31-1.85,1.41-1.18.47-10.52,6.93-11.43,7.91-.58.62-1.21,1.13-1.41,1.13-.43,0-3.19,1.98-4.7,3.36-.58.54-2.13,1.9-3.44,3.03-1.31,1.13-3.34,2.97-4.52,4.1s-2.26,2.06-2.41,2.06c-.34,0-3.46,2.85-3.46,3.17,0,.13-1.1,1.27-2.45,2.54-1.34,1.26-5.13,4.92-8.4,8.14-3.27,3.21-6.77,6.52-7.77,7.35-1.97,1.65-6.35,5.94-8.42,8.27-.71.8-2.13,2.18-3.14,3.05s-1.83,1.79-1.83,2.02-.44.79-.97,1.22c-2.05,1.66-4.48,5.17-5,7.21-.71,2.8-2.26,4.95-7.72,10.77-6.66,7.09-10.57,11.89-16.99,20.86-3.14,4.39-8.33,11.35-11.54,15.46-5.45,7-8.16,10.85-13.39,19.04-1.17,1.83-4.22,6.46-6.78,10.28s-5.34,8.32-6.18,9.99l-1.53,3.04,1.85,2.1c4.23,4.8,17.69,19.07,21.05,22.34l3.62,3.52,2.41-2.87c6.44-7.65,10.2-11.67,14.34-15.32,2.49-2.19,6.93-6.17,9.86-8.84,7.02-6.39,14.17-12.38,21.09-17.66,3.09-2.36,6.74-5.19,8.11-6.29,4.98-3.99,10.08-3.97,12.79.04.89,1.31.99,1.88.81,4.32-.26,3.57-1.17,6.22-3.66,10.69-4.21,7.58-14.46,19.57-23.48,27.5-3.2,2.82-10.15,9.43-15.43,14.69l-9.6,9.58,2.15,2.41c3.19,3.58,8.08,9.46,10.86,13.06,1.35,1.75,3.83,4.68,5.52,6.5s3.06,3.62,3.06,4,.11.69.24.69c.44,0,2.98-1.4,8.63-4.75,10.03-5.95,52.31-27.33,62.08-31.39,6.43-2.67,16.84-8.7,19.46-11.28.83-.82,3.39-3.29,5.67-5.48,4.39-4.21,10.69-10.31,11.42-11.05.24-.24,2.14-2.08,4.22-4.09s3.8-3.82,3.83-4.04c.02-.21,1.27-1.46,2.77-2.77,1.5-1.31,2.74-2.53,2.77-2.72.02-.19,1.06-1.39,2.31-2.66,1.24-1.28,2.83-2.97,3.51-3.77,1.31-1.53,7.76-8.52,11.2-12.14,1.13-1.19,2.05-2.32,2.05-2.51s.48-.8,1.07-1.36c.59-.56,1.08-1.27,1.08-1.57,0-.3,1.01-1.6,2.22-2.89,2.08-2.19,2.61-2.92,3.9-5.32.28-.53.88-1.08,1.31-1.22.44-.14.8-.54.8-.89s.29-.74.65-.88.65-.53.65-.86.29-.73.65-.86c.36-.14.65-.51.65-.82s.15-.63.32-.71c.31-.14,2.26-2.41,4-4.69.46-.59,1.72-2.15,2.81-3.46,2.72-3.27,2.67-3.2,4.15-5.4.72-1.08,1.46-1.96,1.64-1.96s.65-.69,1.05-1.53,1.02-1.64,1.38-1.78c.36-.14.65-.52.65-.85s.16-.6.35-.6,1.2-1.22,2.25-2.7c1.87-2.66,5.48-7.26,6.03-7.68.15-.11,1.21-1.44,2.36-2.94,1.14-1.5,2.4-3.06,2.81-3.46.4-.41,1.3-1.52,1.98-2.46.69-.95,1.46-1.87,1.71-2.04.26-.17.46-.46.48-.65.04-.67,2.87-4.89,3.28-4.89.23,0,.63-.58.87-1.3.25-.71.61-1.3.8-1.3.31,0,2.29-2.91,2.35-3.46.02-.11.56-.91,1.22-1.77.65-.85,1.19-1.72,1.19-1.92s.35-.77.78-1.26c1.06-1.21,7.67-11.87,8.35-13.46.3-.7,1.03-1.82,1.63-2.47.59-.66.94-1.19.76-1.19-.35,0,2.25-4.8,4.92-9.08.22-.35.69-1.33,1.04-2.16s.93-2,1.28-2.59c.35-.6,1.45-2.83,2.43-4.98,2.91-6.34,3.57-7.75,3.95-8.43.93-1.67,3.52-7.2,3.59-7.68.05-.3.32-.78.6-1.06s.52-.68.52-.89.48-1.44,1.08-2.74c.6-1.3,1.08-2.6,1.09-2.89,0-.29.27-1.04.59-1.67.57-1.09.46-1.31-2.65-5.41-6.09-8.01-11.55-14.21-19.36-22.01-9.49-9.47-22.12-20.79-23.09-20.69ZM370.43,43.79c5.64.04,11.45,1.62,18.27,4.74,3.7,1.7,6.11,3.13,7.75,4.58,2.8,2.49,6.29,7.55,7.55,10.92.49,1.32,1.56,3.71,2.36,5.32,3.52,7.04,3.91,11.39,1.63,18.35-1.64,5.04-3.89,8.55-7.65,11.95-4.84,4.36-10.78,7.3-19.12,9.45-8.02,2.07-12.07,1.76-20.43-1.55-5.97-2.36-8.14-3.85-14.34-9.87-8.68-8.43-11.17-13.02-11.52-21.25-.26-5.98.26-8.63,2.55-13.06,3.47-6.72,8.41-11.45,15.73-15.09,6.11-3.04,11.57-4.54,17.21-4.5ZM369.31,48.53c1.34.06,2.69.12,4.03.18M213.2,132.36l-2.67.16c-1.47.08-3.16.27-3.75.41-1.16.27-2.78.45-7.57.81-3.77.29-17.32,2.64-18.92,3.28-.65.26-1.46.36-1.81.23-.34-.14-.85.04-1.14.38-.28.34-.67.53-.85.41-.31-.19-3.14.52-6.27,1.57-.71.24-1.89.54-2.6.66s-1.98.58-2.81,1.02c-1.83.96-5.48,2.16-6.57,2.16-.43,0-.79.15-.79.32,0,.3-3.72,2.03-4.41,2.05-.17,0-.55.25-.84.55s-.94.55-1.43.55c-.48.01-1.65.59-2.58,1.3-.94.7-2.04,1.29-2.46,1.29s-.89.19-1.03.43-1.08.82-2.08,1.31c-1,.48-3.47,1.93-5.49,3.22-2.03,1.29-4.07,2.53-4.54,2.76-.48.22-1.34.91-1.92,1.53-.58.63-1.4,1.13-1.84,1.13-.5,0-.79.32-.79.86,0,.52-.29.86-.71.86-.88,0-5.38,4.02-17.4,15.57-2.11,2.03-4.77,4.46-5.91,5.41-1.14.95-2.87,2.52-3.84,3.47-.97.95-3.61,3.29-5.86,5.19-2.25,1.9-4.42,3.74-4.82,4.1-3.41,3.01-4.34,3.85-6.29,5.69-1.22,1.16-2.44,2.1-2.7,2.1s-.48.29-.48.65-.18.65-.39.65c-.38,0-3.88,3.54-7.71,7.79-.97,1.07-2.29,2.53-2.93,3.24-2.11,2.33-4.54,6.2-4.52,7.22.02,1.35.95,2.48,2.43,2.94,1.17.35,5.26.24,9.02-.23.95-.13,2.51-.3,3.46-.4.95-.09,3.87-.67,6.48-1.28,2.62-.61,5.1-1.11,5.52-1.11s.76-.2.76-.44.63-.44,1.41-.45c.77-.01,2.18-.31,3.14-.66.95-.36,2.26-.73,2.9-.82.64-.1,1.71-.45,2.38-.78.67-.33,2.65-.95,4.41-1.36,1.76-.42,4.04-1.23,5.06-1.8,1.03-.57,2.26-1.04,2.76-1.04s1.23-.17,1.65-.38c.42-.21,1.24-.59,1.83-.84.59-.24,1.77-.74,2.6-1.1.83-.35,2.68-.98,4.11-1.38,1.43-.41,2.98-.88,3.46-1.05,2.19-.81,4.03-1.3,4.83-1.3.47,0,1.02-.15,1.19-.33.38-.38,1.08-.45,7.36-.74,4.56-.21,7.01.15,10.41,1.53,2.68,1.09,2.48,1.24,6.55-5.01,2.11-3.23,4.7-7.08,5.76-8.56,1.06-1.47,3.16-4.71,4.66-7.19,2.99-4.92,6.41-9.68,12.46-17.34,2.17-2.74,6.44-8.39,9.5-12.55,7.24-9.85,11.52-15.04,17.64-21.43l5-5.22ZM245.29,196.75c-1.12.1-2.57.83-4.13,2.13-1.19.98-4.49,3.55-7.35,5.7-6.17,4.66-16.28,13.09-21.42,17.85-2.02,1.88-5.98,5.44-8.8,7.91-5.31,4.66-12.37,12.4-17.8,19.52-1.73,2.26-5.11,6.25-7.53,8.87-2.41,2.61-5.11,5.83-5.99,7.14-.89,1.31-2.39,3.26-3.35,4.33-1.85,2.06-4.44,8.46-3.95,9.74.57,1.49,3.83-.05,11.55-5.51,8.82-6.23,16.83-12.97,24.63-20.72,8.08-8.03,17.25-16.84,23.73-22.81,5.34-4.91,14.01-14.88,17.21-19.79,4.23-6.48,6.29-12.4,4.82-13.86-.4-.4-.95-.56-1.63-.5h0ZM154.09,223.04c-.18,0-.69.7-1.15,1.55-.45.84-1.52,2.15-2.37,2.89-.84.74-1.73,1.69-1.97,2.1-1.19,2.06-1.93,3.38-2.93,5.19l-1.09,1.99,2.35,2.64c1.65,1.85,2.57,2.57,3.09,2.4.49-.16.57-.11.22.14-1.05.77,9.73,10.89,17.75,16.68,1.23.89,2.26,1.61,2.29,1.62.22.04,9.24-10.09,9.24-10.38,0-.2-2.58-2.96-5.74-6.13-3.17-3.17-8.82-9.12-12.56-13.22-3.75-4.1-6.96-7.46-7.13-7.46ZM305.35,251.15l-2.67,1.49c-1.47.82-5.5,2.74-8.95,4.27-3.45,1.53-11.65,5.44-18.21,8.68-6.57,3.24-12.05,5.9-12.18,5.9-.51,0-25.48,13.24-30.17,16-2.74,1.61-6.96,3.92-9.39,5.14-4.59,2.3-6.19,3.57-6.19,4.92,0,.74-2.28,8.85-2.89,10.29-.15.35-.32.84-.38,1.08-.41,1.71-2.88,8.64-3.56,10.01-.46.92-.98,2.24-1.15,2.94-.17.69-.68,1.74-1.15,2.33-.46.58-.84,1.33-.84,1.66s-.18.93-.39,1.35c-.38.7-1.6,3.33-4.75,10.16-.74,1.6-1.35,3.17-1.35,3.48s-.23.79-.51,1.08c-.28.28-.58.94-.66,1.47-.14.89-.69,2.18-3.39,7.92-.56,1.19-1.15,2.7-1.3,3.35-.16.65-.44,1.19-.64,1.19s-.48.44-.64.97c-.36,1.26-1.34,3.56-2.4,5.67-.46.91-.84,1.85-.84,2.07s-.4,1.23-.88,2.23c-1.89,3.91-1.53,7.04.89,7.83,1.59.52,4.98.08,7.56-.98,3.84-1.59,9.14-4.12,9.52-4.54.23-.27,1.35-.92,2.48-1.45,1.13-.54,2.06-1.18,2.06-1.43s.17-.36.39-.23c.21.13.62-.05.92-.41.29-.35.71-.65.93-.65s.63-.19.92-.42c2.4-1.96,3.29-2.6,3.61-2.6.2,0,1.07-.64,1.93-1.41,1.8-1.62,2.81-2.32,4.16-2.91.53-.23,1.21-.81,1.51-1.3s.75-.88.99-.88,1.02-.59,1.73-1.3c.71-.72,1.49-1.49,1.73-1.73.44-.43,5.57-4.6,6.64-5.4.32-.24,1.22-1.02,2-1.73s2.06-1.78,2.83-2.38c.78-.59,1.72-1.45,2.11-1.9s1.04-1.14,1.45-1.52c2.41-2.23,4.25-3.91,5.86-5.36,1.01-.9,1.82-1.83,1.82-2.05s.22-.42.49-.42,1.19-.67,2.05-1.47c.86-.81,2.64-2.49,3.94-3.73,1.31-1.24,3.1-2.74,3.99-3.33.89-.59,1.72-1.44,1.86-1.87.14-.44.58-.91.99-1.04.4-.13,1.42-.93,2.25-1.78,2.94-3,4.54-4.51,4.79-4.51.14,0,1.34-1.03,2.68-2.28,1.33-1.24,3.6-3.34,5.03-4.65,1.43-1.31,2.61-2.58,2.63-2.81.02-.24.61-.82,1.32-1.3.71-.48,1.3-.99,1.3-1.14s.73-1.06,1.62-2.03c.9-.97,2.02-2.27,2.49-2.9s1.5-1.88,2.27-2.78,1.41-1.86,1.41-2.14.18-.48.39-.48.59-.59.84-1.3.61-1.3.81-1.3.66-.63,1.03-1.41c.38-.77,1.29-2.67,2.04-4.22.74-1.55,1.59-3.69,1.87-4.76.29-1.07.57-2.14.64-2.38.93-3.3,1.54-6.7,1.71-9.52.36-6.13.55-9.02.77-12.23l.21-3.14ZM154.65,254.19c-.68,0-10.98,9.56-15.49,14.39-11.06,11.83-23,25.63-30.3,35.04l-4.62,5.95,5.09-2.67c2.8-1.47,5.28-2.83,5.5-3.04.66-.59,2.29-.42,3.02.32,1.2,1.2.79,2.69-1.51,5.45-1.21,1.45-3.55,4.67-5.22,7.15-3.24,4.83-11.76,16.42-18.55,25.22-2.29,2.97-4.74,6.19-5.43,7.14l-1.27,1.73,1.8-1.42c.99-.78,3.23-2.73,4.98-4.33,1.74-1.61,5.6-5.06,8.57-7.67s6.75-5.97,8.4-7.48c1.65-1.51,5.16-4.42,7.8-6.46,2.64-2.05,6.86-5.61,9.4-7.91,9.44-8.57,15.98-13.82,17.21-13.82,2.67,0,2.87,2.15.63,6.61-.86,1.72-2.22,4.15-3.02,5.4-1.35,2.11-1.43,3.15-.13,1.57.32-.39,2.05-1.89,3.84-3.34,4.96-4.03,17.44-14.8,22.29-19.24,2.38-2.18,6.81-6.21,9.84-8.96s5.52-5.16,5.52-5.34-.38-.69-.85-1.11c-.82-.74-.98-.68-5.13,2.31-4.76,3.42-7.29,4.69-10.11,5.08-3.93.54-6.79-2-6.23-5.53.57-3.57,3.41-10.14,5.67-13.1,1.38-1.81,1.35-2.06-.33-3.04-.78-.45-3.58-2.64-6.24-4.85-2.66-2.22-4.96-4.03-5.11-4.03ZM196.48,264.91l-5.34,4.42c-2.94,2.43-5.4,4.58-5.47,4.78-.07.2,3.39,3.96,7.7,8.36,5.73,5.85,8.66,8.49,10.89,9.84,1.68,1.01,3.26,2.17,3.51,2.58.31.5.69.63,1.15.4.38-.2,1.41-.67,2.29-1.05.88-.38,1.72-.89,1.86-1.12.14-.23.64-.42,1.11-.42s1.62-.51,2.56-1.14l1.71-1.14-3.95-4.16c-2.17-2.29-5.42-6.11-7.22-8.49s-4.35-5.49-5.67-6.92-3.01-3.34-3.76-4.27l-1.36-1.67ZM98.64,362.34c.23,0,.43.27.43.6s-.32.72-.7.87c-.51.19-.63.08-.43-.42.15-.38.27-.77.27-.87s.19-.18.43-.18ZM17.55,413.12c.12-.02.19.04.19.16,0,.24-.29.55-.65.69-.35.14-.65.18-.65.1s.29-.39.65-.69c.19-.16.35-.24.46-.26Z"/>
    <path d="M440,.09c-1.3.03-2.61.15-4.58.35-1.43.14-4.16.35-6.07.47-2.85.17-9.51.79-13.43,1.24-.48.06-1.15.26-1.46.46s-.99.38-1.49.4c-.51.03-.92.19-.92.35s2.14,2.18,4.76,4.48c13.18,11.55,24.94,23.66,33.09,34.06,2.02,2.57,3.74,4.42,3.84,4.11.1-.31.38-.82.63-1.14.26-.32.49-.9.53-1.3.04-.4.46-1.89.93-3.32,2.13-6.41,3.36-11.61,3.22-13.6-.04-.58.15-1.19.41-1.35.55-.34.7-11.14.19-14.25-.17-1.07-.79-2.67-1.36-3.56-.57-.89-1.05-1.77-1.05-1.95-.03-1.15-5.61-4.46-7.99-4.73-5-.57-7.1-.79-9.25-.74ZM405.83,4.87c-1.48.16-4.62,1.07-5.01,1.46-.23.22-.91.41-1.52.42-.6,0-1.59.39-2.18.86-.6.46-1.42.85-1.82.85-.93.01-4.38,1.13-6.4,2.07-.83.39-1.91.77-2.38.85-.48.07-1.55.47-2.38.87s-1.65.74-1.8.75c-.16,0-.43.16-.61.34-.18.18-.76.32-1.29.32s-1.06.24-1.17.55c-.11.3-1.26.91-2.53,1.35-1.28.45-2.51.98-2.74,1.19-.22.21-.76.38-1.19.38s-.79.15-.79.32-1.1.81-2.46,1.41c-1.35.59-3.71,1.71-5.24,2.47-1.54.77-2.96,1.29-3.17,1.17-.2-.13-.37-.04-.37.19s-.63.56-1.38.73c-.76.17-1.65.57-1.98.9s-1.11.71-1.76.84c-.64.14-1.45.42-1.81.64-.35.21-3.88,2.03-7.83,4.03-6.95,3.52-7.77,3.96-10.56,5.71-.71.45-1.54.77-1.84.7s-.54.07-.54.31-1.07.96-2.38,1.62c-1.31.66-2.38,1.34-2.38,1.52s-.73.54-1.62.83-1.92.75-2.27,1.03c-.36.28-1.92,1.26-3.46,2.19-1.54.93-2.88,1.84-2.95,2.03s-.52.35-.98.35-.96.29-1.09.65c-.14.36-.49.65-.8.65s-.79.29-1.08.64c-.29.35-1.05.91-1.68,1.23-1.74.91-7.17,4.27-7.42,4.59-.12.16-1.38.95-2.81,1.75-1.43.8-2.69,1.58-2.81,1.74-.44.58-5.53,3.88-5.99,3.88-.26,0-1.11.55-1.89,1.23-.78.68-1.62,1.31-1.85,1.41-1.18.47-10.52,6.93-11.43,7.91-.58.62-1.21,1.13-1.41,1.13-.43,0-3.19,1.98-4.7,3.36-.58.54-2.13,1.9-3.44,3.03-1.31,1.13-3.34,2.97-4.52,4.1s-2.26,2.06-2.41,2.06c-.34,0-3.46,2.85-3.46,3.17,0,.13-1.1,1.27-2.45,2.54-1.34,1.26-5.13,4.92-8.4,8.14-3.27,3.21-6.77,6.52-7.77,7.35-1.97,1.65-6.35,5.94-8.42,8.27-.71.8-2.13,2.18-3.14,3.05s-1.83,1.79-1.83,2.02-.44.79-.97,1.22c-2.05,1.66-4.48,5.17-5,7.21-.71,2.8-2.26,4.95-7.72,10.77-6.66,7.09-10.57,11.89-16.99,20.86-3.14,4.39-8.33,11.35-11.54,15.46-5.45,7-8.16,10.85-13.39,19.04-1.17,1.83-4.22,6.46-6.78,10.28s-5.34,8.32-6.18,9.99l-1.53,3.04,1.85,2.1c4.23,4.8,17.69,19.07,21.05,22.34l3.62,3.52,2.41-2.87c6.44-7.65,10.2-11.67,14.34-15.32,2.49-2.19,6.93-6.17,9.86-8.84,7.02-6.39,14.17-12.38,21.09-17.66,3.09-2.36,6.74-5.19,8.11-6.29,4.98-3.99,10.08-3.97,12.79.04.89,1.31.99,1.88.81,4.32-.26,3.57-1.17,6.22-3.66,10.69-4.21,7.58-14.46,19.57-23.48,27.5-3.2,2.82-10.15,9.43-15.43,14.69l-9.6,9.58,2.15,2.41c3.19,3.58,8.08,9.46,10.86,13.06,1.35,1.75,3.83,4.68,5.52,6.5s3.06,3.62,3.06,4,.11.69.24.69c.44,0,2.98-1.4,8.63-4.75,10.03-5.95,52.31-27.33,62.08-31.39,6.43-2.67,16.84-8.7,19.46-11.28.83-.82,3.39-3.29,5.67-5.48,4.39-4.21,10.69-10.31,11.42-11.05.24-.24,2.14-2.08,4.22-4.09s3.8-3.82,3.83-4.04c.02-.21,1.27-1.46,2.77-2.77,1.5-1.31,2.74-2.53,2.77-2.72.02-.19,1.06-1.39,2.31-2.66,1.24-1.28,2.83-2.97,3.51-3.77,1.31-1.53,7.76-8.52,11.2-12.14,1.13-1.19,2.05-2.32,2.05-2.51s.48-.8,1.07-1.36c.59-.56,1.08-1.27,1.08-1.57,0-.3,1.01-1.6,2.22-2.89,2.08-2.19,2.61-2.92,3.9-5.32.28-.53.88-1.08,1.31-1.22.44-.14.8-.54.8-.89s.29-.74.65-.88.65-.53.65-.86.29-.73.65-.86c.36-.14.65-.51.65-.82s.15-.63.32-.71c.31-.14,2.26-2.41,4-4.69.46-.59,1.72-2.15,2.81-3.46,2.72-3.27,2.67-3.2,4.15-5.4.72-1.08,1.46-1.96,1.64-1.96s.65-.69,1.05-1.53,1.02-1.64,1.38-1.78c.36-.14.65-.52.65-.85s.16-.6.35-.6,1.2-1.22,2.25-2.7c1.87-2.66,5.48-7.26,6.03-7.68.15-.11,1.21-1.44,2.36-2.94,1.14-1.5,2.4-3.06,2.81-3.46.4-.41,1.3-1.52,1.98-2.46.69-.95,1.46-1.87,1.71-2.04.26-.17.46-.46.48-.65.04-.67,2.87-4.89,3.28-4.89.23,0,.63-.58.87-1.3.25-.71.61-1.3.8-1.3.31,0,2.29-2.91,2.35-3.46.02-.11.56-.91,1.22-1.77.65-.85,1.19-1.72,1.19-1.92s.35-.77.78-1.26c1.06-1.21,7.67-11.87,8.35-13.46.3-.7,1.03-1.82,1.63-2.47.59-.66.94-1.19.76-1.19-.35,0,2.25-4.8,4.92-9.08.22-.35.69-1.33,1.04-2.16s.93-2,1.28-2.59c.35-.6,1.45-2.83,2.43-4.98,2.91-6.34,3.57-7.75,3.95-8.43.93-1.67,3.52-7.2,3.59-7.68.05-.3.32-.78.6-1.06s.52-.68.52-.89.48-1.44,1.08-2.74c.6-1.3,1.08-2.6,1.09-2.89,0-.29.27-1.04.59-1.67.57-1.09.46-1.31-2.65-5.41-6.09-8.01-11.55-14.21-19.36-22.01-9.49-9.47-22.12-20.79-23.09-20.69ZM370.43,43.79c5.64.04,11.45,1.62,18.27,4.74,3.7,1.7,6.11,3.13,7.75,4.58,2.8,2.49,6.29,7.55,7.55,10.92.49,1.32,1.56,3.71,2.36,5.32,3.52,7.04,3.91,11.39,1.63,18.35-1.64,5.04-3.89,8.55-7.65,11.95-4.84,4.36-10.78,7.3-19.12,9.45-8.02,2.07-12.07,1.76-20.43-1.55-5.97-2.36-8.14-3.85-14.34-9.87-8.68-8.43-11.17-13.02-11.52-21.25-.26-5.98.26-8.63,2.55-13.06,3.47-6.72,8.41-11.45,15.73-15.09,6.11-3.04,11.57-4.54,17.21-4.5ZM369.31,48.53c-9.68.41-20.9,6.51-26.29,14.75-2.74,4.2-3.59,7.47-3.37,12.96.15,3.7.36,4.66,1.58,7.26.78,1.65,2.46,4.28,3.74,5.85,2.47,3.02,8.28,8.48,11.42,10.74,2.13,1.54,9.05,4.35,12.61,5.12,3.25.71,4.27.7,8.13-.09,8.6-1.76,15.58-4.96,20.12-9.24,4.14-3.9,5.69-6.77,7.02-12.96.93-4.36.09-7.14-5.89-19.35-3.91-7.98-12.51-13.09-25.04-14.87-1.3-.18-2.65-.24-4.03-.18ZM213.2,132.36l-2.67.16c-1.47.08-3.16.27-3.75.41-1.16.27-2.78.45-7.57.81-3.77.29-17.32,2.64-18.92,3.28-.65.26-1.46.36-1.81.23-.34-.14-.85.04-1.14.38-.28.34-.67.53-.85.41-.31-.19-3.14.52-6.27,1.57-.71.24-1.89.54-2.6.66s-1.98.58-2.81,1.02c-1.83.96-5.48,2.16-6.57,2.16-.43,0-.79.15-.79.32,0,.3-3.72,2.03-4.41,2.05-.17,0-.55.25-.84.55s-.94.55-1.43.55c-.48.01-1.65.59-2.58,1.3-.94.7-2.04,1.29-2.46,1.29s-.89.19-1.03.43-1.08.82-2.08,1.31c-1,.48-3.47,1.93-5.49,3.22-2.03,1.29-4.07,2.53-4.54,2.76-.48.22-1.34.91-1.92,1.53-.58.63-1.4,1.13-1.84,1.13-.5,0-.79.32-.79.86,0,.52-.29.86-.71.86-.88,0-5.38,4.02-17.4,15.57-2.11,2.03-4.77,4.46-5.91,5.41-1.14.95-2.87,2.52-3.84,3.47-.97.95-3.61,3.29-5.86,5.19-2.25,1.9-4.42,3.74-4.82,4.1-3.41,3.01-4.34,3.85-6.29,5.69-1.22,1.16-2.44,2.1-2.7,2.1s-.48.29-.48.65-.18.65-.39.65c-.38,0-3.88,3.54-7.71,7.79-.97,1.07-2.29,2.53-2.93,3.24-2.11,2.33-4.54,6.2-4.52,7.22.02,1.35.95,2.48,2.43,2.94,1.17.35,5.26.24,9.02-.23.95-.13,2.51-.3,3.46-.4.95-.09,3.87-.67,6.48-1.28,2.62-.61,5.1-1.11,5.52-1.11s.76-.2.76-.44.63-.44,1.41-.45c.77-.01,2.18-.31,3.14-.66.95-.36,2.26-.73,2.9-.82.64-.1,1.71-.45,2.38-.78.67-.33,2.65-.95,4.41-1.36,1.76-.42,4.04-1.23,5.06-1.8,1.03-.57,2.26-1.04,2.76-1.04s1.23-.17,1.65-.38c.42-.21,1.24-.59,1.83-.84.59-.24,1.77-.74,2.6-1.1.83-.35,2.68-.98,4.11-1.38,1.43-.41,2.98-.88,3.46-1.05,2.19-.81,4.03-1.3,4.83-1.3.47,0,1.02-.15,1.19-.33.38-.38,1.08-.45,7.36-.74,4.56-.21,7.01.15,10.41,1.53,2.68,1.09,2.48,1.24,6.55-5.01,2.11-3.23,4.7-7.08,5.76-8.56,1.06-1.47,3.16-4.71,4.66-7.19,2.99-4.92,6.41-9.68,12.46-17.34,2.17-2.74,6.44-8.39,9.5-12.55,7.24-9.85,11.52-15.04,17.64-21.43l5-5.22ZM245.29,196.75c-1.12.1-2.57.83-4.13,2.13-1.19.98-4.49,3.55-7.35,5.7-6.17,4.66-16.28,13.09-21.42,17.85-2.02,1.88-5.98,5.44-8.8,7.91-5.31,4.66-12.37,12.4-17.8,19.52-1.73,2.26-5.11,6.25-7.53,8.87-2.41,2.61-5.11,5.83-5.99,7.14-.89,1.31-2.39,3.26-3.35,4.33-1.85,2.06-4.44,8.46-3.95,9.74.57,1.49,3.83-.05,11.55-5.51,8.82-6.23,16.83-12.97,24.63-20.72,8.08-8.03,17.25-16.84,23.73-22.81,5.34-4.91,14.01-14.88,17.21-19.79,4.23-6.48,6.29-12.4,4.82-13.86-.4-.4-.95-.56-1.63-.5h0ZM154.09,223.04c-.18,0-.69.7-1.15,1.55-.45.84-1.52,2.15-2.37,2.89-.84.74-1.73,1.69-1.97,2.1-1.19,2.06-1.93,3.38-2.93,5.19l-1.09,1.99,2.35,2.64c1.65,1.85,2.57,2.57,3.09,2.4.49-.16.57-.11.22.14-1.05.77,9.73,10.89,17.75,16.68,1.23.89,2.26,1.61,2.29,1.62.22.04,9.24-10.09,9.24-10.38,0-.2-2.58-2.96-5.74-6.13-3.17-3.17-8.82-9.12-12.56-13.22-3.75-4.1-6.96-7.46-7.13-7.46ZM305.35,251.15l-2.67,1.49c-1.47.82-5.5,2.74-8.95,4.27-3.45,1.53-11.65,5.44-18.21,8.68-6.57,3.24-12.05,5.9-12.18,5.9-.51,0-25.48,13.24-30.17,16-2.74,1.61-6.96,3.92-9.39,5.14-4.59,2.3-6.19,3.57-6.19,4.92,0,.74-2.28,8.85-2.89,10.29-.15.35-.32.84-.38,1.08-.41,1.71-2.88,8.64-3.56,10.01-.46.92-.98,2.24-1.15,2.94-.17.69-.68,1.74-1.15,2.33-.46.58-.84,1.33-.84,1.66s-.18.93-.39,1.35c-.38.7-1.6,3.33-4.75,10.16-.74,1.6-1.35,3.17-1.35,3.48s-.23.79-.51,1.08c-.28.28-.58.94-.66,1.47-.14.89-.69,2.18-3.39,7.92-.56,1.19-1.15,2.7-1.3,3.35-.16.65-.44,1.19-.64,1.19s-.48.44-.64.97c-.36,1.26-1.34,3.56-2.4,5.67-.46.91-.84,1.85-.84,2.07s-.4,1.23-.88,2.23c-1.89,3.91-1.53,7.04.89,7.83,1.59.52,4.98.08,7.56-.98,3.84-1.59,9.14-4.12,9.52-4.54.23-.27,1.35-.92,2.48-1.45,1.13-.54,2.06-1.18,2.06-1.43s.17-.36.39-.23c.21.13.62-.05.92-.41.29-.35.71-.65.93-.65s.63-.19.92-.42c2.4-1.96,3.29-2.6,3.61-2.6.2,0,1.07-.64,1.93-1.41,1.8-1.62,2.81-2.32,4.16-2.91.53-.23,1.21-.81,1.51-1.3s.75-.88.99-.88,1.02-.59,1.73-1.3c.71-.72,1.49-1.49,1.73-1.73.44-.43,5.57-4.6,6.64-5.4.32-.24,1.22-1.02,2-1.73s2.06-1.78,2.83-2.38c.78-.59,1.72-1.45,2.11-1.9s1.04-1.14,1.45-1.52c2.41-2.23,4.25-3.91,5.86-5.36,1.01-.9,1.82-1.83,1.82-2.05s.22-.42.49-.42,1.19-.67,2.05-1.47c.86-.81,2.64-2.49,3.94-3.73,1.31-1.24,3.1-2.74,3.99-3.33.89-.59,1.72-1.44,1.86-1.87.14-.44.58-.91.99-1.04.4-.13,1.42-.93,2.25-1.78,2.94-3,4.54-4.51,4.79-4.51.14,0,1.34-1.03,2.68-2.28,1.33-1.24,3.6-3.34,5.03-4.65,1.43-1.31,2.61-2.58,2.63-2.81.02-.24.61-.82,1.32-1.3.71-.48,1.3-.99,1.3-1.14s.73-1.06,1.62-2.03c.9-.97,2.02-2.27,2.49-2.9s1.5-1.88,2.27-2.78,1.41-1.86,1.41-2.14.18-.48.39-.48.59-.59.84-1.3.61-1.3.81-1.3.66-.63,1.03-1.41c.38-.77,1.29-2.67,2.04-4.22.74-1.55,1.59-3.69,1.87-4.76.29-1.07.57-2.14.64-2.38.93-3.3,1.54-6.7,1.71-9.52.36-6.13.55-9.02.77-12.23l.21-3.14ZM196.48,264.91l-5.34,4.42c-2.94,2.43-5.4,4.58-5.47,4.78-.07.2,3.39,3.96,7.7,8.36,5.73,5.85,8.66,8.49,10.89,9.84,1.68,1.01,3.26,2.17,3.51,2.58.31.5.69.63,1.15.4.38-.2,1.41-.67,2.29-1.05.88-.38,1.72-.89,1.86-1.12.14-.23.64-.42,1.11-.42s1.62-.51,2.56-1.14l1.71-1.14-3.95-4.16c-2.17-2.29-5.42-6.11-7.22-8.49s-4.35-5.49-5.67-6.92-3.01-3.34-3.76-4.27l-1.36-1.67ZM98.64,362.34c.23,0,.43.27.43.6s-.32.72-.7.87c-.51.19-.63.08-.43-.42.15-.38.27-.77.27-.87s.19-.18.43-.18ZM17.55,413.12c.12-.02.19.04.19.16,0,.24-.29.55-.65.69-.35.14-.65.18-.65.1s.29-.39.65-.69c.19-.16.35-.24.46-.26Z"/>
    <path class="cls-2" d="M405.83,4.87c-1.48.16-4.62,1.07-5.01,1.46-.23.22-.91.41-1.52.42-.6,0-1.59.39-2.18.86-.6.46-1.42.85-1.82.85-.93.01-4.38,1.13-6.4,2.07-.83.39-1.91.77-2.38.85-.48.07-1.55.47-2.38.87s-1.65.74-1.8.75c-.16,0-.43.16-.61.34-.18.18-.76.32-1.29.32s-1.06.24-1.17.55c-.11.3-1.26.91-2.53,1.35-1.28.45-2.51.98-2.74,1.19-.22.21-.76.38-1.19.38s-.79.15-.79.32-1.1.81-2.46,1.41c-1.35.59-3.71,1.71-5.24,2.47-1.54.77-2.96,1.29-3.17,1.17-.2-.13-.37-.04-.37.19s-.63.56-1.38.73c-.76.17-1.65.57-1.98.9s-1.11.71-1.76.84c-.64.14-1.45.42-1.81.64-.35.21-3.88,2.03-7.83,4.03-6.95,3.52-7.77,3.96-10.56,5.71-.71.45-1.54.77-1.84.7s-.54.07-.54.31-1.07.96-2.38,1.62c-1.31.66-2.38,1.34-2.38,1.52s-.73.54-1.62.83-1.92.75-2.27,1.03c-.36.28-1.92,1.26-3.46,2.19-1.54.93-2.88,1.84-2.95,2.03s-.52.35-.98.35-.96.29-1.09.65c-.14.36-.49.65-.8.65s-.79.29-1.08.64c-.29.35-1.05.91-1.68,1.23-1.74.91-7.17,4.27-7.42,4.59-.12.16-1.38.95-2.81,1.75-1.43.8-2.69,1.58-2.81,1.74-.44.58-5.53,3.88-5.99,3.88-.26,0-1.11.55-1.89,1.23-.78.68-1.62,1.31-1.85,1.41-1.18.47-10.52,6.93-11.43,7.91-.58.62-1.21,1.13-1.41,1.13-.43,0-3.19,1.98-4.7,3.36-.58.54-2.13,1.9-3.44,3.03-1.31,1.13-3.34,2.97-4.52,4.1s-2.26,2.06-2.41,2.06c-.34,0-3.46,2.85-3.46,3.17,0,.13-1.1,1.27-2.45,2.54-1.34,1.26-5.13,4.92-8.4,8.14-3.27,3.21-6.77,6.52-7.77,7.35-1.97,1.65-6.35,5.94-8.42,8.27-.71.8-2.13,2.18-3.14,3.05s-1.83,1.79-1.83,2.02-.44.79-.97,1.22c-2.05,1.66-4.48,5.17-5,7.21-.71,2.8-2.26,4.95-7.72,10.77-6.66,7.09-10.57,11.89-16.99,20.86-3.14,4.39-8.33,11.35-11.54,15.46-5.45,7-8.16,10.85-13.39,19.04-1.17,1.83-4.22,6.46-6.78,10.28s-5.34,8.32-6.18,9.99l-1.53,3.04,1.85,2.1c4.23,4.8,17.69,19.07,21.05,22.34l3.62,3.52,2.41-2.87c6.44-7.65,10.2-11.67,14.34-15.32,2.49-2.19,6.93-6.17,9.86-8.84,7.02-6.39,14.17-12.38,21.09-17.66,3.09-2.36,6.74-5.19,8.11-6.29,4.98-3.99,10.08-3.97,12.79.04.89,1.31.99,1.88.81,4.32-.26,3.57-1.17,6.22-3.66,10.69-4.21,7.58-14.46,19.57-23.48,27.5-3.2,2.82-10.15,9.43-15.43,14.69l-9.6,9.58,2.15,2.41c3.19,3.58,8.08,9.46,10.86,13.06,1.35,1.75,3.83,4.68,5.52,6.5s3.06,3.62,3.06,4,.11.69.24.69c.44,0,2.98-1.4,8.63-4.75,10.03-5.95,52.31-27.33,62.08-31.39,6.43-2.67,16.84-8.7,19.46-11.28.83-.82,3.39-3.29,5.67-5.48,4.39-4.21,10.69-10.31,11.42-11.05.24-.24,2.14-2.08,4.22-4.09s3.8-3.82,3.83-4.04c.02-.21,1.27-1.46,2.77-2.77,1.5-1.31,2.74-2.53,2.77-2.72.02-.19,1.06-1.39,2.31-2.66,1.24-1.28,2.83-2.97,3.51-3.77,1.31-1.53,7.76-8.52,11.2-12.14,1.13-1.19,2.05-2.32,2.05-2.51s.48-.8,1.07-1.36c.59-.56,1.08-1.27,1.08-1.57,0-.3,1.01-1.6,2.22-2.89,2.08-2.19,2.61-2.92,3.9-5.32.28-.53.88-1.08,1.31-1.22.44-.14.8-.54.8-.89s.29-.74.65-.88.65-.53.65-.86.29-.73.65-.86c.36-.14.65-.51.65-.82s.15-.63.32-.71c.31-.14,2.26-2.41,4-4.69.46-.59,1.72-2.15,2.81-3.46,2.72-3.27,2.67-3.2,4.15-5.4.72-1.08,1.46-1.96,1.64-1.96s.65-.69,1.05-1.53,1.02-1.64,1.38-1.78c.36-.14.65-.52.65-.85s.16-.6.35-.6,1.2-1.22,2.25-2.7c1.87-2.66,5.48-7.26,6.03-7.68.15-.11,1.21-1.44,2.36-2.94,1.14-1.5,2.4-3.06,2.81-3.46.4-.41,1.3-1.52,1.98-2.46.69-.95,1.46-1.87,1.71-2.04.26-.17.46-.46.48-.65.04-.67,2.87-4.89,3.28-4.89.23,0,.63-.58.87-1.3.25-.71.61-1.3.8-1.3.31,0,2.29-2.91,2.35-3.46.02-.11.56-.91,1.22-1.77.65-.85,1.19-1.72,1.19-1.92s.35-.77.78-1.26c1.06-1.21,7.67-11.87,8.35-13.46.3-.7,1.03-1.82,1.63-2.47.59-.66.94-1.19.76-1.19-.35,0,2.25-4.8,4.92-9.08.22-.35.69-1.33,1.04-2.16s.93-2,1.28-2.59c.35-.6,1.45-2.83,2.43-4.98,2.91-6.34,3.57-7.75,3.95-8.43.93-1.67,3.52-7.2,3.59-7.68.05-.3.32-.78.6-1.06s.52-.68.52-.89.48-1.44,1.08-2.74c.6-1.3,1.08-2.6,1.09-2.89,0-.29.27-1.04.59-1.67.57-1.09.46-1.31-2.65-5.41-6.09-8.01-11.55-14.21-19.36-22.01-9.49-9.47-22.12-20.79-23.09-20.69ZM370.43,43.79c5.64.04,11.45,1.62,18.27,4.74,3.7,1.7,6.11,3.13,7.75,4.58,2.8,2.49,6.29,7.55,7.55,10.92.49,1.32,1.56,3.71,2.36,5.32,3.52,7.04,3.91,11.39,1.63,18.35-1.64,5.04-3.89,8.55-7.65,11.95-4.84,4.36-10.78,7.3-19.12,9.45-8.02,2.07-12.07,1.76-20.43-1.55-5.97-2.36-8.14-3.85-14.34-9.87-8.68-8.43-11.17-13.02-11.52-21.25-.26-5.98.26-8.63,2.55-13.06,3.47-6.72,8.41-11.45,15.73-15.09,6.11-3.04,11.57-4.54,17.21-4.5ZM369.31,48.53c1.34.06,2.69.12,4.03.18M213.2,132.36l-2.67.16c-1.47.08-3.16.27-3.75.41-1.16.27-2.78.45-7.57.81-3.77.29-17.32,2.64-18.92,3.28-.65.26-1.46.36-1.81.23-.34-.14-.85.04-1.14.38-.28.34-.67.53-.85.41-.31-.19-3.14.52-6.27,1.57-.71.24-1.89.54-2.6.66s-1.98.58-2.81,1.02c-1.83.96-5.48,2.16-6.57,2.16-.43,0-.79.15-.79.32,0,.3-3.72,2.03-4.41,2.05-.17,0-.55.25-.84.55s-.94.55-1.43.55c-.48.01-1.65.59-2.58,1.3-.94.7-2.04,1.29-2.46,1.29s-.89.19-1.03.43-1.08.82-2.08,1.31c-1,.48-3.47,1.93-5.49,3.22-2.03,1.29-4.07,2.53-4.54,2.76-.48.22-1.34.91-1.92,1.53-.58.63-1.4,1.13-1.84,1.13-.5,0-.79.32-.79.86,0,.52-.29.86-.71.86-.88,0-5.38,4.02-17.4,15.57-2.11,2.03-4.77,4.46-5.91,5.41-1.14.95-2.87,2.52-3.84,3.47-.97.95-3.61,3.29-5.86,5.19-2.25,1.9-4.42,3.74-4.82,4.1-3.41,3.01-4.34,3.85-6.29,5.69-1.22,1.16-2.44,2.1-2.7,2.1s-.48.29-.48.65-.18.65-.39.65c-.38,0-3.88,3.54-7.71,7.79-.97,1.07-2.29,2.53-2.93,3.24-2.11,2.33-4.54,6.2-4.52,7.22.02,1.35.95,2.48,2.43,2.94,1.17.35,5.26.24,9.02-.23.95-.13,2.51-.3,3.46-.4.95-.09,3.87-.67,6.48-1.28,2.62-.61,5.1-1.11,5.52-1.11s.76-.2.76-.44.63-.44,1.41-.45c.77-.01,2.18-.31,3.14-.66.95-.36,2.26-.73,2.9-.82.64-.1,1.71-.45,2.38-.78.67-.33,2.65-.95,4.41-1.36,1.76-.42,4.04-1.23,5.06-1.8,1.03-.57,2.26-1.04,2.76-1.04s1.23-.17,1.65-.38c.42-.21,1.24-.59,1.83-.84.59-.24,1.77-.74,2.6-1.1.83-.35,2.68-.98,4.11-1.38,1.43-.41,2.98-.88,3.46-1.05,2.19-.81,4.03-1.3,4.83-1.3.47,0,1.02-.15,1.19-.33.38-.38,1.08-.45,7.36-.74,4.56-.21,7.01.15,10.41,1.53,2.68,1.09,2.48,1.24,6.55-5.01,2.11-3.23,4.7-7.08,5.76-8.56,1.06-1.47,3.16-4.71,4.66-7.19,2.99-4.92,6.41-9.68,12.46-17.34,2.17-2.74,6.44-8.39,9.5-12.55,7.24-9.85,11.52-15.04,17.64-21.43l5-5.22ZM245.29,196.75c-1.12.1-2.57.83-4.13,2.13-1.19.98-4.49,3.55-7.35,5.7-6.17,4.66-16.28,13.09-21.42,17.85-2.02,1.88-5.98,5.44-8.8,7.91-5.31,4.66-12.37,12.4-17.8,19.52-1.73,2.26-5.11,6.25-7.53,8.87-2.41,2.61-5.11,5.83-5.99,7.14-.89,1.31-2.39,3.26-3.35,4.33-1.85,2.06-4.44,8.46-3.95,9.74.57,1.49,3.83-.05,11.55-5.51,8.82-6.23,16.83-12.97,24.63-20.72,8.08-8.03,17.25-16.84,23.73-22.81,5.34-4.91,14.01-14.88,17.21-19.79,4.23-6.48,6.29-12.4,4.82-13.86-.4-.4-.95-.56-1.63-.5h0ZM154.09,223.04c-.18,0-.69.7-1.15,1.55-.45.84-1.52,2.15-2.37,2.89-.84.74-1.73,1.69-1.97,2.1-1.19,2.06-1.93,3.38-2.93,5.19l-1.09,1.99,2.35,2.64c1.65,1.85,2.57,2.57,3.09,2.4.49-.16.57-.11.22.14-1.05.77,9.73,10.89,17.75,16.68,1.23.89,2.26,1.61,2.29,1.62.22.04,9.24-10.09,9.24-10.38,0-.2-2.58-2.96-5.74-6.13-3.17-3.17-8.82-9.12-12.56-13.22-3.75-4.1-6.96-7.46-7.13-7.46ZM305.35,251.15l-2.67,1.49c-1.47.82-5.5,2.74-8.95,4.27-3.45,1.53-11.65,5.44-18.21,8.68-6.57,3.24-12.05,5.9-12.18,5.9-.51,0-25.48,13.24-30.17,16-2.74,1.61-6.96,3.92-9.39,5.14-4.59,2.3-6.19,3.57-6.19,4.92,0,.74-2.28,8.85-2.89,10.29-.15.35-.32.84-.38,1.08-.41,1.71-2.88,8.64-3.56,10.01-.46.92-.98,2.24-1.15,2.94-.17.69-.68,1.74-1.15,2.33-.46.58-.84,1.33-.84,1.66s-.18.93-.39,1.35c-.38.7-1.6,3.33-4.75,10.16-.74,1.6-1.35,3.17-1.35,3.48s-.23.79-.51,1.08c-.28.28-.58.94-.66,1.47-.14.89-.69,2.18-3.39,7.92-.56,1.19-1.15,2.7-1.3,3.35-.16.65-.44,1.19-.64,1.19s-.48.44-.64.97c-.36,1.26-1.34,3.56-2.4,5.67-.46.91-.84,1.85-.84,2.07s-.4,1.23-.88,2.23c-1.89,3.91-1.53,7.04.89,7.83,1.59.52,4.98.08,7.56-.98,3.84-1.59,9.14-4.12,9.52-4.54.23-.27,1.35-.92,2.48-1.45,1.13-.54,2.06-1.18,2.06-1.43s.17-.36.39-.23c.21.13.62-.05.92-.41.29-.35.71-.65.93-.65s.63-.19.92-.42c2.4-1.96,3.29-2.6,3.61-2.6.2,0,1.07-.64,1.93-1.41,1.8-1.62,2.81-2.32,4.16-2.91.53-.23,1.21-.81,1.51-1.3s.75-.88.99-.88,1.02-.59,1.73-1.3c.71-.72,1.49-1.49,1.73-1.73.44-.43,5.57-4.6,6.64-5.4.32-.24,1.22-1.02,2-1.73s2.06-1.78,2.83-2.38c.78-.59,1.72-1.45,2.11-1.9s1.04-1.14,1.45-1.52c2.41-2.23,4.25-3.91,5.86-5.36,1.01-.9,1.82-1.83,1.82-2.05s.22-.42.49-.42,1.19-.67,2.05-1.47c.86-.81,2.64-2.49,3.94-3.73,1.31-1.24,3.1-2.74,3.99-3.33.89-.59,1.72-1.44,1.86-1.87.14-.44.58-.91.99-1.04.4-.13,1.42-.93,2.25-1.78,2.94-3,4.54-4.51,4.79-4.51.14,0,1.34-1.03,2.68-2.28,1.33-1.24,3.6-3.34,5.03-4.65,1.43-1.31,2.61-2.58,2.63-2.81.02-.24.61-.82,1.32-1.3.71-.48,1.3-.99,1.3-1.14s.73-1.06,1.62-2.03c.9-.97,2.02-2.27,2.49-2.9s1.5-1.88,2.27-2.78,1.41-1.86,1.41-2.14.18-.48.39-.48.59-.59.84-1.3.61-1.3.81-1.3.66-.63,1.03-1.41c.38-.77,1.29-2.67,2.04-4.22.74-1.55,1.59-3.69,1.87-4.76.29-1.07.57-2.14.64-2.38.93-3.3,1.54-6.7,1.71-9.52.36-6.13.55-9.02.77-12.23l.21-3.14ZM196.48,264.91l-5.34,4.42c-2.94,2.43-5.4,4.58-5.47,4.78-.07.2,3.39,3.96,7.7,8.36,5.73,5.85,8.66,8.49,10.89,9.84,1.68,1.01,3.26,2.17,3.51,2.58.31.5.69.63,1.15.4.38-.2,1.41-.67,2.29-1.05.88-.38,1.72-.89,1.86-1.12.14-.23.64-.42,1.11-.42s1.62-.51,2.56-1.14l1.71-1.14-3.95-4.16c-2.17-2.29-5.42-6.11-7.22-8.49s-4.35-5.49-5.67-6.92-3.01-3.34-3.76-4.27l-1.36-1.67ZM98.64,362.34c.23,0,.43.27.43.6s-.32.72-.7.87c-.51.19-.63.08-.43-.42.15-.38.27-.77.27-.87s.19-.18.43-.18ZM17.55,413.12c.12-.02.19.04.19.16,0,.24-.29.55-.65.69-.35.14-.65.18-.65.1s.29-.39.65-.69c.19-.16.35-.24.46-.26Z"/>
    <path class="cls-2" d="M405.83,4.87c-1.48.16-4.62,1.07-5.01,1.46-.23.22-.91.41-1.52.42-.6,0-1.59.39-2.18.86-.6.46-1.42.85-1.82.85-.93.01-4.38,1.13-6.4,2.07-.83.39-1.91.77-2.38.85-.48.07-1.55.47-2.38.87s-1.65.74-1.8.75c-.16,0-.43.16-.61.34-.18.18-.76.32-1.29.32s-1.06.24-1.17.55c-.11.3-1.26.91-2.53,1.35-1.28.45-2.51.98-2.74,1.19-.22.21-.76.38-1.19.38s-.79.15-.79.32-1.1.81-2.46,1.41c-1.35.59-3.71,1.71-5.24,2.47-1.54.77-2.96,1.29-3.17,1.17-.2-.13-.37-.04-.37.19s-.63.56-1.38.73c-.76.17-1.65.57-1.98.9s-1.11.71-1.76.84c-.64.14-1.45.42-1.81.64-.35.21-3.88,2.03-7.83,4.03-6.95,3.52-7.77,3.96-10.56,5.71-.71.45-1.54.77-1.84.7s-.54.07-.54.31-1.07.96-2.38,1.62c-1.31.66-2.38,1.34-2.38,1.52s-.73.54-1.62.83-1.92.75-2.27,1.03c-.36.28-1.92,1.26-3.46,2.19-1.54.93-2.88,1.84-2.95,2.03s-.52.35-.98.35-.96.29-1.09.65c-.14.36-.49.65-.8.65s-.79.29-1.08.64c-.29.35-1.05.91-1.68,1.23-1.74.91-7.17,4.27-7.42,4.59-.12.16-1.38.95-2.81,1.75-1.43.8-2.69,1.58-2.81,1.74-.44.58-5.53,3.88-5.99,3.88-.26,0-1.11.55-1.89,1.23-.78.68-1.62,1.31-1.85,1.41-1.18.47-10.52,6.93-11.43,7.91-.58.62-1.21,1.13-1.41,1.13-.43,0-3.19,1.98-4.7,3.36-.58.54-2.13,1.9-3.44,3.03-1.31,1.13-3.34,2.97-4.52,4.1s-2.26,2.06-2.41,2.06c-.34,0-3.46,2.85-3.46,3.17,0,.13-1.1,1.27-2.45,2.54-1.34,1.26-5.13,4.92-8.4,8.14-3.27,3.21-6.77,6.52-7.77,7.35-1.97,1.65-6.35,5.94-8.42,8.27-.71.8-2.13,2.18-3.14,3.05s-1.83,1.79-1.83,2.02-.44.79-.97,1.22c-2.05,1.66-4.48,5.17-5,7.21-.71,2.8-2.26,4.95-7.72,10.77-6.66,7.09-10.57,11.89-16.99,20.86-3.14,4.39-8.33,11.35-11.54,15.46-5.45,7-8.16,10.85-13.39,19.04-1.17,1.83-4.22,6.46-6.78,10.28s-5.34,8.32-6.18,9.99l-1.53,3.04,1.85,2.1c4.23,4.8,17.69,19.07,21.05,22.34l3.62,3.52,2.41-2.87c6.44-7.65,10.2-11.67,14.34-15.32,2.49-2.19,6.93-6.17,9.86-8.84,7.02-6.39,14.17-12.38,21.09-17.66,3.09-2.36,6.74-5.19,8.11-6.29,4.98-3.99,10.08-3.97,12.79.04.89,1.31.99,1.88.81,4.32-.26,3.57-1.17,6.22-3.66,10.69-4.21,7.58-14.46,19.57-23.48,27.5-3.2,2.82-10.15,9.43-15.43,14.69l-9.6,9.58,2.15,2.41c3.19,3.58,8.08,9.46,10.86,13.06,1.35,1.75,3.83,4.68,5.52,6.5s3.06,3.62,3.06,4,.11.69.24.69c.44,0,2.98-1.4,8.63-4.75,10.03-5.95,52.31-27.33,62.08-31.39,6.43-2.67,16.84-8.7,19.46-11.28.83-.82,3.39-3.29,5.67-5.48,4.39-4.21,10.69-10.31,11.42-11.05.24-.24,2.14-2.08,4.22-4.09s3.8-3.82,3.83-4.04c.02-.21,1.27-1.46,2.77-2.77,1.5-1.31,2.74-2.53,2.77-2.72.02-.19,1.06-1.39,2.31-2.66,1.24-1.28,2.83-2.97,3.51-3.77,1.31-1.53,7.76-8.52,11.2-12.14,1.13-1.19,2.05-2.32,2.05-2.51s.48-.8,1.07-1.36c.59-.56,1.08-1.27,1.08-1.57,0-.3,1.01-1.6,2.22-2.89,2.08-2.19,2.61-2.92,3.9-5.32.28-.53.88-1.08,1.31-1.22.44-.14.8-.54.8-.89s.29-.74.65-.88.65-.53.65-.86.29-.73.65-.86c.36-.14.65-.51.65-.82s.15-.63.32-.71c.31-.14,2.26-2.41,4-4.69.46-.59,1.72-2.15,2.81-3.46,2.72-3.27,2.67-3.2,4.15-5.4.72-1.08,1.46-1.96,1.64-1.96s.65-.69,1.05-1.53,1.02-1.64,1.38-1.78c.36-.14.65-.52.65-.85s.16-.6.35-.6,1.2-1.22,2.25-2.7c1.87-2.66,5.48-7.26,6.03-7.68.15-.11,1.21-1.44,2.36-2.94,1.14-1.5,2.4-3.06,2.81-3.46.4-.41,1.3-1.52,1.98-2.46.69-.95,1.46-1.87,1.71-2.04.26-.17.46-.46.48-.65.04-.67,2.87-4.89,3.28-4.89.23,0,.63-.58.87-1.3.25-.71.61-1.3.8-1.3.31,0,2.29-2.91,2.35-3.46.02-.11.56-.91,1.22-1.77.65-.85,1.19-1.72,1.19-1.92s.35-.77.78-1.26c1.06-1.21,7.67-11.87,8.35-13.46.3-.7,1.03-1.82,1.63-2.47.59-.66.94-1.19.76-1.19-.35,0,2.25-4.8,4.92-9.08.22-.35.69-1.33,1.04-2.16s.93-2,1.28-2.59c.35-.6,1.45-2.83,2.43-4.98,2.91-6.34,3.57-7.75,3.95-8.43.93-1.67,3.52-7.2,3.59-7.68.05-.3.32-.78.6-1.06s.52-.68.52-.89.48-1.44,1.08-2.74c.6-1.3,1.08-2.6,1.09-2.89,0-.29.27-1.04.59-1.67.57-1.09.46-1.31-2.65-5.41-6.09-8.01-11.55-14.21-19.36-22.01-9.49-9.47-22.12-20.79-23.09-20.69ZM370.43,43.79c5.64.04,11.45,1.62,18.27,4.74,3.7,1.7,6.11,3.13,7.75,4.58,2.8,2.49,6.29,7.55,7.55,10.92.49,1.32,1.56,3.71,2.36,5.32,3.52,7.04,3.91,11.39,1.63,18.35-1.64,5.04-3.89,8.55-7.65,11.95-4.84,4.36-10.78,7.3-19.12,9.45-8.02,2.07-12.07,1.76-20.43-1.55-5.97-2.36-8.14-3.85-14.34-9.87-8.68-8.43-11.17-13.02-11.52-21.25-.26-5.98.26-8.63,2.55-13.06,3.47-6.72,8.41-11.45,15.73-15.09,6.11-3.04,11.57-4.54,17.21-4.5ZM369.31,48.53c1.34.06,2.69.12,4.03.18M213.2,132.36l-2.67.16c-1.47.08-3.16.27-3.75.41-1.16.27-2.78.45-7.57.81-3.77.29-17.32,2.64-18.92,3.28-.65.26-1.46.36-1.81.23-.34-.14-.85.04-1.14.38-.28.34-.67.53-.85.41-.31-.19-3.14.52-6.27,1.57-.71.24-1.89.54-2.6.66s-1.98.58-2.81,1.02c-1.83.96-5.48,2.16-6.57,2.16-.43,0-.79.15-.79.32,0,.3-3.72,2.03-4.41,2.05-.17,0-.55.25-.84.55s-.94.55-1.43.55c-.48.01-1.65.59-2.58,1.3-.94.7-2.04,1.29-2.46,1.29s-.89.19-1.03.43-1.08.82-2.08,1.31c-1,.48-3.47,1.93-5.49,3.22-2.03,1.29-4.07,2.53-4.54,2.76-.48.22-1.34.91-1.92,1.53-.58.63-1.4,1.13-1.84,1.13-.5,0-.79.32-.79.86,0,.52-.29.86-.71.86-.88,0-5.38,4.02-17.4,15.57-2.11,2.03-4.77,4.46-5.91,5.41-1.14.95-2.87,2.52-3.84,3.47-.97.95-3.61,3.29-5.86,5.19-2.25,1.9-4.42,3.74-4.82,4.1-3.41,3.01-4.34,3.85-6.29,5.69-1.22,1.16-2.44,2.1-2.7,2.1s-.48.29-.48.65-.18.65-.39.65c-.38,0-3.88,3.54-7.71,7.79-.97,1.07-2.29,2.53-2.93,3.24-2.11,2.33-4.54,6.2-4.52,7.22.02,1.35.95,2.48,2.43,2.94,1.17.35,5.26.24,9.02-.23.95-.13,2.51-.3,3.46-.4.95-.09,3.87-.67,6.48-1.28,2.62-.61,5.1-1.11,5.52-1.11s.76-.2.76-.44.63-.44,1.41-.45c.77-.01,2.18-.31,3.14-.66.95-.36,2.26-.73,2.9-.82.64-.1,1.71-.45,2.38-.78.67-.33,2.65-.95,4.41-1.36,1.76-.42,4.04-1.23,5.06-1.8,1.03-.57,2.26-1.04,2.76-1.04s1.23-.17,1.65-.38c.42-.21,1.24-.59,1.83-.84.59-.24,1.77-.74,2.6-1.1.83-.35,2.68-.98,4.11-1.38,1.43-.41,2.98-.88,3.46-1.05,2.19-.81,4.03-1.3,4.83-1.3.47,0,1.02-.15,1.19-.33.38-.38,1.08-.45,7.36-.74,4.56-.21,7.01.15,10.41,1.53,2.68,1.09,2.48,1.24,6.55-5.01,2.11-3.23,4.7-7.08,5.76-8.56,1.06-1.47,3.16-4.71,4.66-7.19,2.99-4.92,6.41-9.68,12.46-17.34,2.17-2.74,6.44-8.39,9.5-12.55,7.24-9.85,11.52-15.04,17.64-21.43l5-5.22ZM245.29,196.75c-1.12.1-2.57.83-4.13,2.13-1.19.98-4.49,3.55-7.35,5.7-6.17,4.66-16.28,13.09-21.42,17.85-2.02,1.88-5.98,5.44-8.8,7.91-5.31,4.66-12.37,12.4-17.8,19.52-1.73,2.26-5.11,6.25-7.53,8.87-2.41,2.61-5.11,5.83-5.99,7.14-.89,1.31-2.39,3.26-3.35,4.33-1.85,2.06-4.44,8.46-3.95,9.74.57,1.49,3.83-.05,11.55-5.51,8.82-6.23,16.83-12.97,24.63-20.72,8.08-8.03,17.25-16.84,23.73-22.81,5.34-4.91,14.01-14.88,17.21-19.79,4.23-6.48,6.29-12.4,4.82-13.86-.4-.4-.95-.56-1.63-.5h0ZM154.09,223.04c-.18,0-.69.7-1.15,1.55-.45.84-1.52,2.15-2.37,2.89-.84.74-1.73,1.69-1.97,2.1-1.19,2.06-1.93,3.38-2.93,5.19l-1.09,1.99,2.35,2.64c1.65,1.85,2.57,2.57,3.09,2.4.49-.16.57-.11.22.14-1.05.77,9.73,10.89,17.75,16.68,1.23.89,2.26,1.61,2.29,1.62.22.04,9.24-10.09,9.24-10.38,0-.2-2.58-2.96-5.74-6.13-3.17-3.17-8.82-9.12-12.56-13.22-3.75-4.1-6.96-7.46-7.13-7.46ZM305.35,251.15l-2.67,1.49c-1.47.82-5.5,2.74-8.95,4.27-3.45,1.53-11.65,5.44-18.21,8.68-6.57,3.24-12.05,5.9-12.18,5.9-.51,0-25.48,13.24-30.17,16-2.74,1.61-6.96,3.92-9.39,5.14-4.59,2.3-6.19,3.57-6.19,4.92,0,.74-2.28,8.85-2.89,10.29-.15.35-.32.84-.38,1.08-.41,1.71-2.88,8.64-3.56,10.01-.46.92-.98,2.24-1.15,2.94-.17.69-.68,1.74-1.15,2.33-.46.58-.84,1.33-.84,1.66s-.18.93-.39,1.35c-.38.7-1.6,3.33-4.75,10.16-.74,1.6-1.35,3.17-1.35,3.48s-.23.79-.51,1.08c-.28.28-.58.94-.66,1.47-.14.89-.69,2.18-3.39,7.92-.56,1.19-1.15,2.7-1.3,3.35-.16.65-.44,1.19-.64,1.19s-.48.44-.64.97c-.36,1.26-1.34,3.56-2.4,5.67-.46.91-.84,1.85-.84,2.07s-.4,1.23-.88,2.23c-1.89,3.91-1.53,7.04.89,7.83,1.59.52,4.98.08,7.56-.98,3.84-1.59,9.14-4.12,9.52-4.54.23-.27,1.35-.92,2.48-1.45,1.13-.54,2.06-1.18,2.06-1.43s.17-.36.39-.23c.21.13.62-.05.92-.41.29-.35.71-.65.93-.65s.63-.19.92-.42c2.4-1.96,3.29-2.6,3.61-2.6.2,0,1.07-.64,1.93-1.41,1.8-1.62,2.81-2.32,4.16-2.91.53-.23,1.21-.81,1.51-1.3s.75-.88.99-.88,1.02-.59,1.73-1.3c.71-.72,1.49-1.49,1.73-1.73.44-.43,5.57-4.6,6.64-5.4.32-.24,1.22-1.02,2-1.73s2.06-1.78,2.83-2.38c.78-.59,1.72-1.45,2.11-1.9s1.04-1.14,1.45-1.52c2.41-2.23,4.25-3.91,5.86-5.36,1.01-.9,1.82-1.83,1.82-2.05s.22-.42.49-.42,1.19-.67,2.05-1.47c.86-.81,2.64-2.49,3.94-3.73,1.31-1.24,3.1-2.74,3.99-3.33.89-.59,1.72-1.44,1.86-1.87.14-.44.58-.91.99-1.04.4-.13,1.42-.93,2.25-1.78,2.94-3,4.54-4.51,4.79-4.51.14,0,1.34-1.03,2.68-2.28,1.33-1.24,3.6-3.34,5.03-4.65,1.43-1.31,2.61-2.58,2.63-2.81.02-.24.61-.82,1.32-1.3.71-.48,1.3-.99,1.3-1.14s.73-1.06,1.62-2.03c.9-.97,2.02-2.27,2.49-2.9s1.5-1.88,2.27-2.78,1.41-1.86,1.41-2.14.18-.48.39-.48.59-.59.84-1.3.61-1.3.81-1.3.66-.63,1.03-1.41c.38-.77,1.29-2.67,2.04-4.22.74-1.55,1.59-3.69,1.87-4.76.29-1.07.57-2.14.64-2.38.93-3.3,1.54-6.7,1.71-9.52.36-6.13.55-9.02.77-12.23l.21-3.14ZM196.48,264.91l-5.34,4.42c-2.94,2.43-5.4,4.58-5.47,4.78-.07.2,3.39,3.96,7.7,8.36,5.73,5.85,8.66,8.49,10.89,9.84,1.68,1.01,3.26,2.17,3.51,2.58.31.5.69.63,1.15.4.38-.2,1.41-.67,2.29-1.05.88-.38,1.72-.89,1.86-1.12.14-.23.64-.42,1.11-.42s1.62-.51,2.56-1.14l1.71-1.14-3.95-4.16c-2.17-2.29-5.42-6.11-7.22-8.49s-4.35-5.49-5.67-6.92-3.01-3.34-3.76-4.27l-1.36-1.67ZM98.64,362.34c.23,0,.43.27.43.6s-.32.72-.7.87c-.51.19-.63.08-.43-.42.15-.38.27-.77.27-.87s.19-.18.43-.18ZM17.55,413.12c.12-.02.19.04.19.16,0,.24-.29.55-.65.69-.35.14-.65.18-.65.1s.29-.39.65-.69c.19-.16.35-.24.46-.26Z"/>
    <path class="cls-2" d="M405.83,4.87c-1.48.16-4.62,1.07-5.01,1.46-.23.22-.91.41-1.52.42-.6,0-1.59.39-2.18.86-.6.46-1.42.85-1.82.85-.93.01-4.38,1.13-6.4,2.07-.83.39-1.91.77-2.38.85-.48.07-1.55.47-2.38.87s-1.65.74-1.8.75c-.16,0-.43.16-.61.34-.18.18-.76.32-1.29.32s-1.06.24-1.17.55c-.11.3-1.26.91-2.53,1.35-1.28.45-2.51.98-2.74,1.19-.22.21-.76.38-1.19.38s-.79.15-.79.32-1.1.81-2.46,1.41c-1.35.59-3.71,1.71-5.24,2.47-1.54.77-2.96,1.29-3.17,1.17-.2-.13-.37-.04-.37.19s-.63.56-1.38.73c-.76.17-1.65.57-1.98.9s-1.11.71-1.76.84c-.64.14-1.45.42-1.81.64-.35.21-3.88,2.03-7.83,4.03-6.95,3.52-7.77,3.96-10.56,5.71-.71.45-1.54.77-1.84.7s-.54.07-.54.31-1.07.96-2.38,1.62c-1.31.66-2.38,1.34-2.38,1.52s-.73.54-1.62.83-1.92.75-2.27,1.03c-.36.28-1.92,1.26-3.46,2.19-1.54.93-2.88,1.84-2.95,2.03s-.52.35-.98.35-.96.29-1.09.65c-.14.36-.49.65-.8.65s-.79.29-1.08.64c-.29.35-1.05.91-1.68,1.23-1.74.91-7.17,4.27-7.42,4.59-.12.16-1.38.95-2.81,1.75-1.43.8-2.69,1.58-2.81,1.74-.44.58-5.53,3.88-5.99,3.88-.26,0-1.11.55-1.89,1.23-.78.68-1.62,1.31-1.85,1.41-1.18.47-10.52,6.93-11.43,7.91-.58.62-1.21,1.13-1.41,1.13-.43,0-3.19,1.98-4.7,3.36-.58.54-2.13,1.9-3.44,3.03-1.31,1.13-3.34,2.97-4.52,4.1s-2.26,2.06-2.41,2.06c-.34,0-3.46,2.85-3.46,3.17,0,.13-1.1,1.27-2.45,2.54-1.34,1.26-5.13,4.92-8.4,8.14-3.27,3.21-6.77,6.52-7.77,7.35-1.97,1.65-6.35,5.94-8.42,8.27-.71.8-2.13,2.18-3.14,3.05s-1.83,1.79-1.83,2.02-.44.79-.97,1.22c-2.05,1.66-4.48,5.17-5,7.21-.71,2.8-2.26,4.95-7.72,10.77-6.66,7.09-10.57,11.89-16.99,20.86-3.14,4.39-8.33,11.35-11.54,15.46-5.45,7-8.16,10.85-13.39,19.04-1.17,1.83-4.22,6.46-6.78,10.28s-5.34,8.32-6.18,9.99l-1.53,3.04,1.85,2.1c4.23,4.8,17.69,19.07,21.05,22.34l3.62,3.52,2.41-2.87c6.44-7.65,10.2-11.67,14.34-15.32,2.49-2.19,6.93-6.17,9.86-8.84,7.02-6.39,14.17-12.38,21.09-17.66,3.09-2.36,6.74-5.19,8.11-6.29,4.98-3.99,10.08-3.97,12.79.04.89,1.31.99,1.88.81,4.32-.26,3.57-1.17,6.22-3.66,10.69-4.21,7.58-14.46,19.57-23.48,27.5-3.2,2.82-10.15,9.43-15.43,14.69l-9.6,9.58,2.15,2.41c3.19,3.58,8.08,9.46,10.86,13.06,1.35,1.75,3.83,4.68,5.52,6.5s3.06,3.62,3.06,4,.11.69.24.69c.44,0,2.98-1.4,8.63-4.75,10.03-5.95,52.31-27.33,62.08-31.39,6.43-2.67,16.84-8.7,19.46-11.28.83-.82,3.39-3.29,5.67-5.48,4.39-4.21,10.69-10.31,11.42-11.05.24-.24,2.14-2.08,4.22-4.09s3.8-3.82,3.83-4.04c.02-.21,1.27-1.46,2.77-2.77,1.5-1.31,2.74-2.53,2.77-2.72.02-.19,1.06-1.39,2.31-2.66,1.24-1.28,2.83-2.97,3.51-3.77,1.31-1.53,7.76-8.52,11.2-12.14,1.13-1.19,2.05-2.32,2.05-2.51s.48-.8,1.07-1.36c.59-.56,1.08-1.27,1.08-1.57,0-.3,1.01-1.6,2.22-2.89,2.08-2.19,2.61-2.92,3.9-5.32.28-.53.88-1.08,1.31-1.22.44-.14.8-.54.8-.89s.29-.74.65-.88.65-.53.65-.86.29-.73.65-.86c.36-.14.65-.51.65-.82s.15-.63.32-.71c.31-.14,2.26-2.41,4-4.69.46-.59,1.72-2.15,2.81-3.46,2.72-3.27,2.67-3.2,4.15-5.4.72-1.08,1.46-1.96,1.64-1.96s.65-.69,1.05-1.53,1.02-1.64,1.38-1.78c.36-.14.65-.52.65-.85s.16-.6.35-.6,1.2-1.22,2.25-2.7c1.87-2.66,5.48-7.26,6.03-7.68.15-.11,1.21-1.44,2.36-2.94,1.14-1.5,2.4-3.06,2.81-3.46.4-.41,1.3-1.52,1.98-2.46.69-.95,1.46-1.87,1.71-2.04.26-.17.46-.46.48-.65.04-.67,2.87-4.89,3.28-4.89.23,0,.63-.58.87-1.3.25-.71.61-1.3.8-1.3.31,0,2.29-2.91,2.35-3.46.02-.11.56-.91,1.22-1.77.65-.85,1.19-1.72,1.19-1.92s.35-.77.78-1.26c1.06-1.21,7.67-11.87,8.35-13.46.3-.7,1.03-1.82,1.63-2.47.59-.66.94-1.19.76-1.19-.35,0,2.25-4.8,4.92-9.08.22-.35.69-1.33,1.04-2.16s.93-2,1.28-2.59c.35-.6,1.45-2.83,2.43-4.98,2.91-6.34,3.57-7.75,3.95-8.43.93-1.67,3.52-7.2,3.59-7.68.05-.3.32-.78.6-1.06s.52-.68.52-.89.48-1.44,1.08-2.74c.6-1.3,1.08-2.6,1.09-2.89,0-.29.27-1.04.59-1.67.57-1.09.46-1.31-2.65-5.41-6.09-8.01-11.55-14.21-19.36-22.01-9.49-9.47-22.12-20.79-23.09-20.69ZM370.43,43.79c5.64.04,11.45,1.62,18.27,4.74,3.7,1.7,6.11,3.13,7.75,4.58,2.8,2.49,6.29,7.55,7.55,10.92.49,1.32,1.56,3.71,2.36,5.32,3.52,7.04,3.91,11.39,1.63,18.35-1.64,5.04-3.89,8.55-7.65,11.95-4.84,4.36-10.78,7.3-19.12,9.45-8.02,2.07-12.07,1.76-20.43-1.55-5.97-2.36-8.14-3.85-14.34-9.87-8.68-8.43-11.17-13.02-11.52-21.25-.26-5.98.26-8.63,2.55-13.06,3.47-6.72,8.41-11.45,15.73-15.09,6.11-3.04,11.57-4.54,17.21-4.5ZM369.31,48.53c1.34.06,2.69.12,4.03.18M213.2,132.36l-2.67.16c-1.47.08-3.16.27-3.75.41-1.16.27-2.78.45-7.57.81-3.77.29-17.32,2.64-18.92,3.28-.65.26-1.46.36-1.81.23-.34-.14-.85.04-1.14.38-.28.34-.67.53-.85.41-.31-.19-3.14.52-6.27,1.57-.71.24-1.89.54-2.6.66s-1.98.58-2.81,1.02c-1.83.96-5.48,2.16-6.57,2.16-.43,0-.79.15-.79.32,0,.3-3.72,2.03-4.41,2.05-.17,0-.55.25-.84.55s-.94.55-1.43.55c-.48.01-1.65.59-2.58,1.3-.94.7-2.04,1.29-2.46,1.29s-.89.19-1.03.43-1.08.82-2.08,1.31c-1,.48-3.47,1.93-5.49,3.22-2.03,1.29-4.07,2.53-4.54,2.76-.48.22-1.34.91-1.92,1.53-.58.63-1.4,1.13-1.84,1.13-.5,0-.79.32-.79.86,0,.52-.29.86-.71.86-.88,0-5.38,4.02-17.4,15.57-2.11,2.03-4.77,4.46-5.91,5.41-1.14.95-2.87,2.52-3.84,3.47-.97.95-3.61,3.29-5.86,5.19-2.25,1.9-4.42,3.74-4.82,4.1-3.41,3.01-4.34,3.85-6.29,5.69-1.22,1.16-2.44,2.1-2.7,2.1s-.48.29-.48.65-.18.65-.39.65c-.38,0-3.88,3.54-7.71,7.79-.97,1.07-2.29,2.53-2.93,3.24-2.11,2.33-4.54,6.2-4.52,7.22.02,1.35.95,2.48,2.43,2.94,1.17.35,5.26.24,9.02-.23.95-.13,2.51-.3,3.46-.4.95-.09,3.87-.67,6.48-1.28,2.62-.61,5.1-1.11,5.52-1.11s.76-.2.76-.44.63-.44,1.41-.45c.77-.01,2.18-.31,3.14-.66.95-.36,2.26-.73,2.9-.82.64-.1,1.71-.45,2.38-.78.67-.33,2.65-.95,4.41-1.36,1.76-.42,4.04-1.23,5.06-1.8,1.03-.57,2.26-1.04,2.76-1.04s1.23-.17,1.65-.38c.42-.21,1.24-.59,1.83-.84.59-.24,1.77-.74,2.6-1.1.83-.35,2.68-.98,4.11-1.38,1.43-.41,2.98-.88,3.46-1.05,2.19-.81,4.03-1.3,4.83-1.3.47,0,1.02-.15,1.19-.33.38-.38,1.08-.45,7.36-.74,4.56-.21,7.01.15,10.41,1.53,2.68,1.09,2.48,1.24,6.55-5.01,2.11-3.23,4.7-7.08,5.76-8.56,1.06-1.47,3.16-4.71,4.66-7.19,2.99-4.92,6.41-9.68,12.46-17.34,2.17-2.74,6.44-8.39,9.5-12.55,7.24-9.85,11.52-15.04,17.64-21.43l5-5.22ZM245.29,196.75c-1.12.1-2.57.83-4.13,2.13-1.19.98-4.49,3.55-7.35,5.7-6.17,4.66-16.28,13.09-21.42,17.85-2.02,1.88-5.98,5.44-8.8,7.91-5.31,4.66-12.37,12.4-17.8,19.52-1.73,2.26-5.11,6.25-7.53,8.87-2.41,2.61-5.11,5.83-5.99,7.14-.89,1.31-2.39,3.26-3.35,4.33-1.85,2.06-4.44,8.46-3.95,9.74.57,1.49,3.83-.05,11.55-5.51,8.82-6.23,16.83-12.97,24.63-20.72,8.08-8.03,17.25-16.84,23.73-22.81,5.34-4.91,14.01-14.88,17.21-19.79,4.23-6.48,6.29-12.4,4.82-13.86-.4-.4-.95-.56-1.63-.5h0ZM154.09,223.04c-.18,0-.69.7-1.15,1.55-.45.84-1.52,2.15-2.37,2.89-.84.74-1.73,1.69-1.97,2.1-1.19,2.06-1.93,3.38-2.93,5.19l-1.09,1.99,2.35,2.64c1.65,1.85,2.57,2.57,3.09,2.4.49-.16.57-.11.22.14-1.05.77,9.73,10.89,17.75,16.68,1.23.89,2.26,1.61,2.29,1.62.22.04,9.24-10.09,9.24-10.38,0-.2-2.58-2.96-5.74-6.13-3.17-3.17-8.82-9.12-12.56-13.22-3.75-4.1-6.96-7.46-7.13-7.46ZM305.35,251.15l-2.67,1.49c-1.47.82-5.5,2.74-8.95,4.27-3.45,1.53-11.65,5.44-18.21,8.68-6.57,3.24-12.05,5.9-12.18,5.9-.51,0-25.48,13.24-30.17,16-2.74,1.61-6.96,3.92-9.39,5.14-4.59,2.3-6.19,3.57-6.19,4.92,0,.74-2.28,8.85-2.89,10.29-.15.35-.32.84-.38,1.08-.41,1.71-2.88,8.64-3.56,10.01-.46.92-.98,2.24-1.15,2.94-.17.69-.68,1.74-1.15,2.33-.46.58-.84,1.33-.84,1.66s-.18.93-.39,1.35c-.38.7-1.6,3.33-4.75,10.16-.74,1.6-1.35,3.17-1.35,3.48s-.23.79-.51,1.08c-.28.28-.58.94-.66,1.47-.14.89-.69,2.18-3.39,7.92-.56,1.19-1.15,2.7-1.3,3.35-.16.65-.44,1.19-.64,1.19s-.48.44-.64.97c-.36,1.26-1.34,3.56-2.4,5.67-.46.91-.84,1.85-.84,2.07s-.4,1.23-.88,2.23c-1.89,3.91-1.53,7.04.89,7.83,1.59.52,4.98.08,7.56-.98,3.84-1.59,9.14-4.12,9.52-4.54.23-.27,1.35-.92,2.48-1.45,1.13-.54,2.06-1.18,2.06-1.43s.17-.36.39-.23c.21.13.62-.05.92-.41.29-.35.71-.65.93-.65s.63-.19.92-.42c2.4-1.96,3.29-2.6,3.61-2.6.2,0,1.07-.64,1.93-1.41,1.8-1.62,2.81-2.32,4.16-2.91.53-.23,1.21-.81,1.51-1.3s.75-.88.99-.88,1.02-.59,1.73-1.3c.71-.72,1.49-1.49,1.73-1.73.44-.43,5.57-4.6,6.64-5.4.32-.24,1.22-1.02,2-1.73s2.06-1.78,2.83-2.38c.78-.59,1.72-1.45,2.11-1.9s1.04-1.14,1.45-1.52c2.41-2.23,4.25-3.91,5.86-5.36,1.01-.9,1.82-1.83,1.82-2.05s.22-.42.49-.42,1.19-.67,2.05-1.47c.86-.81,2.64-2.49,3.94-3.73,1.31-1.24,3.1-2.74,3.99-3.33.89-.59,1.72-1.44,1.86-1.87.14-.44.58-.91.99-1.04.4-.13,1.42-.93,2.25-1.78,2.94-3,4.54-4.51,4.79-4.51.14,0,1.34-1.03,2.68-2.28,1.33-1.24,3.6-3.34,5.03-4.65,1.43-1.31,2.61-2.58,2.63-2.81.02-.24.61-.82,1.32-1.3.71-.48,1.3-.99,1.3-1.14s.73-1.06,1.62-2.03c.9-.97,2.02-2.27,2.49-2.9s1.5-1.88,2.27-2.78,1.41-1.86,1.41-2.14.18-.48.39-.48.59-.59.84-1.3.61-1.3.81-1.3.66-.63,1.03-1.41c.38-.77,1.29-2.67,2.04-4.22.74-1.55,1.59-3.69,1.87-4.76.29-1.07.57-2.14.64-2.38.93-3.3,1.54-6.7,1.71-9.52.36-6.13.55-9.02.77-12.23l.21-3.14ZM196.48,264.91l-5.34,4.42c-2.94,2.43-5.4,4.58-5.47,4.78-.07.2,3.39,3.96,7.7,8.36,5.73,5.85,8.66,8.49,10.89,9.84,1.68,1.01,3.26,2.17,3.51,2.58.31.5.69.63,1.15.4.38-.2,1.41-.67,2.29-1.05.88-.38,1.72-.89,1.86-1.12.14-.23.64-.42,1.11-.42s1.62-.51,2.56-1.14l1.71-1.14-3.95-4.16c-2.17-2.29-5.42-6.11-7.22-8.49s-4.35-5.49-5.67-6.92-3.01-3.34-3.76-4.27l-1.36-1.67ZM98.64,362.34c.23,0,.43.27.43.6s-.32.72-.7.87c-.51.19-.63.08-.43-.42.15-.38.27-.77.27-.87s.19-.18.43-.18ZM17.55,413.12c.12-.02.19.04.19.16,0,.24-.29.55-.65.69-.35.14-.65.18-.65.1s.29-.39.65-.69c.19-.16.35-.24.46-.26Z"/>
  </g>
</svg>