<?xml version="1.0" encoding="UTF-8"?>
<svg id="Layer_1" data-name="Layer 1" xmlns="http://www.w3.org/2000/svg" viewBox="0 0 1153.46 1331.66">
  <defs>
    <style>
      .cls-1 {
        fill: #6cce8a;
      }

      .cls-2 {
        fill: #ff6e3e;
      }

      .cls-3 {
        fill: #fdffe9;
      }

      .cls-4 {
        fill: #431e1e;
      }
    </style>
  </defs>
  <path class="cls-2" d="M1122.83,576.73c0,301.12-244.98,546.11-546.11,546.11S30.62,877.85,30.62,576.73,275.6,30.62,576.73,30.62s546.11,244.98,546.11,546.11Z"/>
  <path class="cls-4" d="M576.73,0C258.71,0,0,258.71,0,576.73s258.71,576.73,576.73,576.73,576.73-258.71,576.73-576.73S894.74,0,576.73,0ZM576.73,1122.83c-301.12,0-546.11-244.98-546.11-546.11S275.6,30.62,576.73,30.62s546.11,244.98,546.11,546.11-244.98,546.11-546.11,546.11Z"/>
  <path class="cls-4" d="M932.17,776.2c-20.96-21.14-69.69-17.56-143.51-12.15-78.38,5.71-175.96,12.82-268.13-8.32-105.48-24.18-187.26-79.17-241.34-115.56-45.27-30.38-70.12-47.15-90.41-36.39-14.95,7.96-16.71,26.37-16.71,39.49,0,24.55,49.52,129.96,131.18,211.81,26.73,26.8,54.62,48.67,83.24,65.5-5.16,14.1-11.3,30.5-18.84,50.55l-6.2,16.41c-27.28,72.67-42.29,112.71-48.43,146.79-12.27,67.69-7.72,117.93,13.49,149.35,18.65,27.58,40.95,43.5,66.29,47.15,3.77.55,7.41.85,11.06.85,47.33,0,83.85-43.75,98.25-60.94,41.68-49.94,50.55-105.78,65.32-198.32,6.32-39.68,10.03-73.09,13.73-113.92,82.09-7.41,162.59-30.26,226.69-57.24,78.32-32.93,132.09-72,134.1-96.61,1.15-14.22-4.68-23.33-9.78-28.44ZM537.42,1067.6c-15.49,97.22-23.76,141.87-58.63,183.62-12.52,15.01-45.75,54.81-81.6,49.58-16.53-2.43-31.84-13.91-45.45-34.15-16.22-23.88-19.32-68.96-8.81-126.93,5.41-30.14,18.35-65.19,46.97-141.57l6.2-16.41c6.87-18.29,12.64-33.66,17.5-46.97,3.89-10.51,7.23-19.81,10.15-28.37,8.57-24.79,13.73-43.14,18.65-66.9,4.86-23.7,8.38-47.82,10.45-71.94,19.32,6.87,39.62,12.88,60.88,17.74,16.34,3.77,32.75,6.62,49.15,8.87-2.13,39.8-4.92,80.14-8.32,120.18-.49,5.35-.91,10.57-1.34,15.62-.91,10.75-1.82,20.84-2.73,30.56-3.52,38.04-7.17,69.75-13.06,107.06Z"/>
  <path class="cls-1" d="M562.88,794.19c-2.13,39.8-4.92,80.14-8.32,120.18-.49,5.35-.91,10.57-1.34,15.62-.91,10.75-1.82,20.84-2.73,30.56-3.52,38.04-7.17,69.75-13.06,107.06-15.49,97.22-23.76,141.87-58.63,183.62-12.52,15.01-45.75,54.81-81.6,49.58-16.53-2.43-31.84-13.91-45.45-34.15-16.22-23.88-19.32-68.96-8.81-126.93,5.41-30.14,18.35-65.19,46.97-141.57l6.2-16.41c6.87-18.29,12.64-33.66,17.5-46.97,3.89-10.51,7.23-19.81,10.15-28.37,8.57-24.79,13.73-43.14,18.65-66.9,4.86-23.7,8.38-47.82,10.45-71.94,19.32,6.87,39.62,12.88,60.88,17.74,16.34,3.77,32.75,6.62,49.15,8.87Z"/>
  <path class="cls-4" d="M713.66,493.87c4.9,111.21-41.08,165.49,22.37,173.66,42.18,5.43,69.89-74.06,71.04-187.48.91-89.79,53.25-137.6,6.58-151.96-43.86-13.49-105.78,34.28-99.99,165.77Z"/>
  <path class="cls-4" d="M396.08,370.12c-4.62,65.75,32.79,97.92,8.59,136.51-7.74,12.35-21.98,25.64-19.45,44.2,1.35,9.88,7.58,22.19,17.62,26.28,23.3,9.48,68.75-24.66,87.6-66.98,21.2-47.61-8.89-66.02,0-140.96,8.44-71.21,42.44-112.21,24.82-128.05-10.41-9.36-30.52-2.47-37.72,0-45.15,15.48-77.56,73.44-81.46,129.01Z"/>
  <path class="cls-4" d="M359.78,605.27c-2.04,0-4.09-.68-5.79-2.08-7.37-6.08-20.55-19.44-26-40.62-3.2-12.44-3.21-25.69,0-38.32,1.23-4.88,6.16-7.84,11.07-6.6,4.88,1.23,7.83,6.19,6.6,11.07-1.71,6.75-3.1,17.31,0,29.31,4.16,16.18,14.28,26.43,19.95,31.1,3.88,3.2,4.43,8.95,1.23,12.83-1.8,2.19-4.41,3.32-7.04,3.32Z"/>
  <path class="cls-4" d="M781.92,702.61c-4.41,0-8.28-3.2-8.99-7.69-.79-4.97,2.6-9.64,7.57-10.43,6.57-1.04,16.28-3.85,25.32-11.34,12.76-10.57,16.88-24.27,18.2-31.51.9-4.95,5.67-8.23,10.6-7.33,4.95.9,8.24,5.65,7.33,10.6-1.76,9.67-7.29,28.01-24.5,42.27-12.22,10.12-25.29,13.91-34.1,15.3-.48.08-.96.11-1.44.11Z"/>
  <path class="cls-4" d="M397.17,1315.99c-2.42,0-4.87-.58-7.16-1.8-7.4-3.96-10.18-13.16-6.22-20.56,20.57-38.44,35.61-79.49,44.71-122,10.9-50.98,13.12-103.18,6.61-155.16-1.04-8.32,4.86-15.91,13.18-16.96,8.31-1.09,15.92,4.86,16.96,13.18,6.94,55.35,4.57,110.96-7.04,165.28-9.69,45.3-25.71,89.03-47.63,129.99-2.74,5.11-7.98,8.03-13.4,8.03Z"/>
  <path class="cls-4" d="M673.34,1086.43c-2.53,0-5.06-.06-7.59-.17-5.03-.23-8.93-4.48-8.7-9.51.22-5.02,4.44-8.89,9.51-8.7,13.39.59,26.83-.57,39.93-3.44,13.92-3.06,27.36-8.02,39.93-14.76,4.45-2.39,9.97-.7,12.34,3.73,2.38,4.44.71,9.96-3.73,12.34-14.05,7.52-29.07,13.08-44.63,16.49-12.17,2.67-24.6,4.02-37.04,4.02Z"/>
  <path class="cls-4" d="M807.97,1037.83c-4.02,0-7.7-2.68-8.79-6.74-1.31-4.87,1.57-9.86,6.43-11.17,12.31-3.32,24.28-8.02,35.59-13.97,11.25-5.93,21.85-13.11,31.52-21.35,3.83-3.26,9.58-2.81,12.85,1.03,3.27,3.83,2.81,9.58-1.02,12.85-10.69,9.11-22.41,17.05-34.84,23.6-12.5,6.58-25.74,11.78-39.35,15.44-.79.21-1.59.31-2.38.31Z"/>
  <path class="cls-3" d="M271.16,175.28c4.6-18.31,21.35-27.29,33.73-34.13,12.78-7.06,26.65-14.72,38.83-8.63,8.75,4.38,15.9,14.76,14.51,23.93-.84,5.54-4.34,7.81-14.98,18.27-18.19,17.88-15.33,18.5-22.35,23.29-11.78,8.03-34.04,15.99-44.97,6.04-9.58-8.72-5.34-26.53-4.78-28.77Z"/>
  <path class="cls-3" d="M426.44,114.27c7.75-13.65,18.9-20.4,35.24-30.03,16.6-9.78,24.89-14.67,37.08-16.24,22.55-2.91,39.79,6.6,45.05,9.81,7.99,4.87,17.74,10.81,21.14,22.68,3.75,13.09-2.75,24.58-3.98,26.66-6.95,11.74-18.88,15.84-33.4,20.84-10.44,3.59-18.85,4.79-35.24,7.05-34.94,4.81-46.12,2.29-53.01,0-7.1-2.36-14.59-4.96-18.08-11.95-5.22-10.44,2.11-23.35,5.21-28.81Z"/>
</svg>